<?xml version="1.0" encoding="UTF-8"?>
<svg width="70px" height="62px" viewBox="0 0 70 62" version="1.1" xmlns="http://www.w3.org/2000/svg" xmlns:xlink="http://www.w3.org/1999/xlink">
    <!-- Generator: Sketch 41.2 (35397) - http://www.bohemiancoding.com/sketch -->
    <title>Page 1</title>
    <desc>Created with Sketch.</desc>
    <defs></defs>
    <g id="07---ALL-PAGES---SEO-Changes" stroke="none" stroke-width="1" fill="none" fill-rule="evenodd">
        <g id="about-us" transform="translate(-755.000000, -1582.000000)">
            <g id="Page-1" transform="translate(756.000000, 1583.000000)">
                <path d="M67.2901032,51.4272824 L38.9807077,2.78104531 C37.9983088,1.04965914 36.035524,0 33.9992606,0 C31.9629973,0 30.0757042,1.0536693 29.0178136,2.85924342 L0.708418113,51.4272824 C-0.274987376,53.1586686 -0.196475986,55.4143831 0.708418113,57.1407566 C1.69081705,58.8721428 3.72808696,60 5.68986516,60 L62.3086561,60 C64.2704343,60 66.3117305,58.8721428 67.2901032,57.1407566 C68.1990235,55.488571 68.2735087,53.2328566 67.2901032,51.4272824 Z" id="Fill-1" stroke="#DA7900" stroke-width="2"></path>
                <path d="M39.2804352,52 L58,52 L51.3670833,40.1904762 C49.3025266,41.1829841 48.1243241,43.0085079 47.018838,44.5323175 L39.5025151,40.0360635 L36.1094097,26.7819683 C35.9639769,26.0200635 35.2269861,25.1829841 34.4123657,24.8020317 C34.1902858,24.6516825 33.8217904,24.5714286 33.6026585,24.5714286 L27.779449,24.5714286 C26.8970254,24.5714286 26.3054675,25.0285714 25.8642558,25.7904762 L23.2120717,30.3619048 C22.77086,31.1989841 23.0666389,32.4170159 23.6532835,32.647619 L27.1928044,34.7819683 L27.0463889,34.9333333 C26.6778935,35.6952381 26.9736725,36.7619048 27.5612998,37.1428571 L35.153287,41.4846984 L35.153287,49.9408254 C35.153287,50.8540952 35.8175614,51.5398095 36.7009676,51.5398095 C37.1421794,51.5398095 37.5833912,51.3894603 37.8791701,51.0085079 C38.1749491,50.7027302 38.3203819,50.3217778 38.3203819,49.9408254 L38.3203819,41.4887619 L45.8357222,45.9850159 C44.1396608,47.584 42.297184,46.8220952 40.8998495,48.3459048 C40.1628588,49.3333333 39.5713009,50.631619 39.2804352,52 Z M28.1479444,33.1829841 L25.7148923,31.7343492 L28.1479444,27.4686984 L31.2423228,27.4686984 L28.1479444,33.1829841 Z M32.5698888,35.9248254 L34.6354282,32.1904762 L36.1821261,38.056127 L32.5698888,35.9248254 Z M38.2419355,26.8571429 C40.0480106,26.8571429 41.0645161,25.3232941 41.0645161,23.3064874 C41.0645161,21.5338487 39.7332286,20.3237647 38.2419355,20.0795966 C38.0871589,20.0795966 37.8497651,20 37.6949886,20 C35.9704849,20 35.4193548,21.6134454 35.4193548,23.6302521 C35.4193548,25.6470588 36.5184776,26.8571429 38.2419355,26.8571429 Z M30.5783031,39.1159089 L27.2325108,37.1428571 L27.6680749,39.5704498 C27.7398605,40.1009163 28.0318534,41.1648862 27.6680749,41.6983897 L23.230947,48.3018872 C22.7944128,48.9862294 23.0107398,50.1251125 23.5947256,50.5796534 C24.4658539,51.2639957 25.5571894,50.5047402 25.7773967,50.2000257 L30.5065174,43.137938 C30.6500887,42.8332234 31.0138672,41.7692535 30.8702959,40.7852585 C30.9420816,40.7093329 30.7218743,39.1159089 30.5783031,39.1159089 Z" id="Combined-Shape" fill="#DA7900"></path>
            </g>
        </g>
    </g>
</svg>