<?xml version="1.0" encoding="UTF-8"?>
<svg width="75px" height="95px" viewBox="0 0 75 95" version="1.1" xmlns="http://www.w3.org/2000/svg" xmlns:xlink="http://www.w3.org/1999/xlink">
    <!-- Generator: Sketch 43.2 (39069) - http://www.bohemiancoding.com/sketch -->
    <title>Page 1</title>
    <desc>Created with Sketch.</desc>
    <defs>
        <path d="M985.5,0 C988.235176,0 990.733882,0.556272727 992.704471,1.60686364 C994.675059,2.65745455 996.338235,4.39745455 996.338235,6.70427273 L996.338235,7.90909091 L1003.23529,7.90909091 C1004.32306,7.90909091 1005.20588,8.79490909 1005.20588,9.88636364 L1005.20588,13.8409091 L1014.07353,13.8409091 C1016.76798,13.8409091 1019,16.0805 1019,18.7840909 L1019,82.0568182 C1019,84.7604091 1016.76798,87 1014.07353,87 L956.926471,87 C954.23202,87 952,84.7604091 952,82.0568182 L952,18.7840909 C952,16.0805 954.23202,13.8409091 956.926471,13.8409091 L965.794118,13.8409091 L965.794118,9.88636364 C965.794118,8.79490909 966.676941,7.90909091 967.764706,7.90909091 L974.661765,7.90909091 L974.661765,6.70427273 C974.661765,4.39745455 976.324941,2.65745455 978.295529,1.60686364 C980.266118,0.556272727 982.764824,0 985.5,0 Z M986,4 C983.792,4 981.817333,4.48933333 980.562667,5.156 C979.306667,5.82266667 979,6.46933333 979,6.78133333 L979,10 C979,11.104 978.104,12 977,12 L970,12 L970,20 L1002,20 L1002,12 L995,12 C993.896,12 993,11.104 993,10 L993,6.78133333 C993,6.46933333 992.693333,5.82266667 991.437333,5.156 C990.182667,4.48933333 988.208,4 986,4 Z M956.983333,18 C956.405133,18 956,18.4057576 956,18.9848485 L956,82.0151515 C956,82.5942424 956.405133,83 956.983333,83 L1014.01667,83 C1014.59487,83 1015,82.5942424 1015,82.0151515 L1015,18.9848485 C1015,18.4057576 1014.59487,18 1014.01667,18 L1005.16667,18 L1005.16667,21.9393939 C1005.16667,23.0266667 1004.2856,23.9090909 1003.2,23.9090909 L967.8,23.9090909 C966.7144,23.9090909 965.833333,23.0266667 965.833333,21.9393939 L965.833333,18 L956.983333,18 Z M975.716455,32.0227973 C977.644927,31.7425351 978.784237,34.1134739 977.365073,35.4470439 L971.396626,41.4242006 C970.619402,42.1919331 969.375312,42.1919331 968.598088,41.4242006 L964.619123,37.4394295 C963.811393,36.6716969 963.790172,35.3899289 964.578007,34.5956312 C965.360537,33.8013335 966.640437,33.8066465 967.417661,34.6062572 L969.997357,37.1897172 L974.566534,32.6138717 C974.872915,32.2924335 975.276116,32.0838971 975.716455,32.0227973 Z M986.897047,37.0039938 C986.959367,36.9986687 987.021688,36.9986687 987.084008,37.0039938 L1004.98453,37.0039938 C1006.09304,36.9880187 1007,37.8879454 1007,39.0008724 C1007,40.1137994 1006.09304,41.013726 1004.98453,40.997751 L987.084008,40.997751 C985.986109,41.0496698 985.053956,40.196337 985.002243,39.09406 C984.950531,37.991783 985.799148,37.0559126 986.897047,37.0039938 Z M975.716455,46.0227973 C977.644927,45.7425351 978.784237,48.1134739 977.365073,49.4470439 L971.396626,55.4242006 C970.619402,56.1919331 969.375312,56.1919331 968.598088,55.4242006 L964.619123,51.4394295 C963.811393,50.6716969 963.790172,49.3899289 964.578007,48.5956312 C965.360537,47.8013335 966.640437,47.8066465 967.417661,48.6062572 L969.997357,51.1897172 L974.566534,46.6138717 C974.872915,46.2924335 975.276116,46.0838971 975.716455,46.0227973 Z M986.897047,51.0039938 C986.959367,50.9986687 987.021688,50.9986687 987.084008,51.0039938 L1004.98453,51.0039938 C1006.09304,50.9880187 1007,51.8879454 1007,53.0008724 C1007,54.1137994 1006.09304,55.013726 1004.98453,54.997751 L987.084008,54.997751 C985.986109,55.0496698 985.053956,54.196337 985.002243,53.09406 C984.950531,51.991783 985.799148,51.0559126 986.897047,51.0039938 Z M975.716455,61.0227973 C977.644927,60.7425351 978.784237,63.1134739 977.365073,64.4470439 L971.396626,70.4242006 C970.619402,71.1919331 969.375312,71.1919331 968.598088,70.4242006 L964.619123,66.4394295 C963.811393,65.6716969 963.790172,64.3899289 964.578007,63.5956312 C965.360537,62.8013335 966.640437,62.8066465 967.417661,63.6062572 L969.997357,66.1897172 L974.566534,61.6138717 C974.872915,61.2924335 975.276116,61.0838971 975.716455,61.0227973 Z M986.897047,66.0039938 C986.959367,65.9986687 987.021688,65.9986687 987.084008,66.0039938 L1004.98453,66.0039938 C1006.09304,65.9880187 1007,66.8879454 1007,68.0008724 C1007,69.1137994 1006.09304,70.013726 1004.98453,69.997751 L987.084008,69.997751 C985.986109,70.0496698 985.053956,69.196337 985.002243,68.09406 C984.950531,66.991783 985.799148,66.0559126 986.897047,66.0039938 Z" id="path-1"></path>
        <filter x="-10.4%" y="-5.7%" width="120.9%" height="116.1%" filterUnits="objectBoundingBox" id="filter-2">
            <feOffset dx="0" dy="2" in="SourceAlpha" result="shadowOffsetOuter1"></feOffset>
            <feGaussianBlur stdDeviation="2" in="shadowOffsetOuter1" result="shadowBlurOuter1"></feGaussianBlur>
            <feColorMatrix values="0 0 0 0 0   0 0 0 0 0   0 0 0 0 0  0 0 0 0.5 0" type="matrix" in="shadowBlurOuter1"></feColorMatrix>
        </filter>
    </defs>
    <g id="About-V2" stroke="none" stroke-width="1" fill="none" fill-rule="evenodd">
        <g id="exterior-crew-about-us-page-dropdown" transform="translate(-1202.000000, -1946.000000)">
            <g id="Group-7" transform="translate(0.000000, 1810.000000)">
                <g id="Group-3">
                    <g id="Group-2" transform="translate(254.000000, 138.000000)">
                        <g id="Page-1">
                            <use fill="black" fill-opacity="1" filter="url(#filter-2)" xlink:href="#path-1"></use>
                            <use fill="#FFFFFF" fill-rule="evenodd" xlink:href="#path-1"></use>
                        </g>
                    </g>
                </g>
            </g>
        </g>
    </g>
</svg>