<?xml version="1.0" encoding="UTF-8"?>
<svg width="77px" height="75px" viewBox="0 0 77 75" version="1.1" xmlns="http://www.w3.org/2000/svg" xmlns:xlink="http://www.w3.org/1999/xlink">
    <!-- Generator: Sketch 45.2 (43514) - http://www.bohemiancoding.com/sketch -->
    <title>building</title>
    <desc>Created with Sketch.</desc>
    <defs>
        <path d="M78.9604964,66.1999969 L63,66.1999969 L63,11.2680079 L77.5095422,11.2680079 L77.5095422,0 L116.68577,0 L116.68577,11.2680079 L131.195313,11.2680079 L131.195313,66.1999969 L115.234816,66.1999969 L78.9604964,66.1999969 Z M116.68577,63.382995 L128.293404,63.382995 L128.293404,14.0850098 L116.68577,14.0850098 L116.68577,63.382995 Z M105.803382,63.382995 L105.803382,52.1149871 L88.3919309,52.1149871 L88.3919309,63.382995 L80.4114506,63.382995 L80.4114506,2.81700197 L113.783862,2.81700197 L113.783862,63.382995 L105.803382,63.382995 Z M65.9019084,63.382995 L65.9019084,14.0850098 L77.5095422,14.0850098 L77.5095422,63.382995 L65.9019084,63.382995 Z M121.038169,25.3530177 L121.038169,18.3109635 L123.940077,18.3109635 L123.940077,25.3530177 L121.038169,25.3530177 Z M107.2548,16.9020118 L110.156709,16.9020118 L110.156709,9.85995761 L107.2548,9.85995761 L107.2548,16.9020118 Z M99.5640463,16.9020118 L102.465955,16.9020118 L102.465955,9.85995761 L99.5640463,9.85995761 L99.5640463,16.9020118 Z M91.7293578,16.9020118 L94.6312662,16.9020118 L94.6312662,9.85995761 L91.7293578,9.85995761 L91.7293578,16.9020118 Z M84.0395326,16.9020118 L86.941441,16.9020118 L86.941441,9.85995761 L84.0395326,9.85995761 L84.0395326,16.9020118 Z M107.2548,30.9870216 L110.156709,30.9870216 L110.156709,23.9449674 L107.2548,23.9449674 L107.2548,30.9870216 Z M99.5640463,30.9870216 L102.465955,30.9870216 L102.465955,23.9449674 L99.5640463,23.9449674 L99.5640463,30.9870216 Z M91.7293578,30.9870216 L94.6312662,30.9870216 L94.6312662,23.9449674 L91.7293578,23.9449674 L91.7293578,30.9870216 Z M84.0395326,30.9870216 L86.941441,30.9870216 L86.941441,23.9449674 L84.0395326,23.9449674 L84.0395326,30.9870216 Z M107.2548,45.0720315 L110.156709,45.0720315 L110.156709,38.0299773 L107.2548,38.0299773 L107.2548,45.0720315 Z M99.5640463,45.0720315 L102.465955,45.0720315 L102.465955,38.0299773 L99.5640463,38.0299773 L99.5640463,45.0720315 Z M91.7293578,45.0720315 L94.6312662,45.0720315 L94.6312662,38.0299773 L91.7293578,38.0299773 L91.7293578,45.0720315 Z M84.0395326,45.0720315 L86.941441,45.0720315 L86.941441,38.0299773 L84.0395326,38.0299773 L84.0395326,45.0720315 Z M121.038169,36.6210256 L121.038169,29.5789714 L123.940077,29.5789714 L123.940077,36.6210256 L121.038169,36.6210256 Z M121.038169,47.8890334 L121.038169,40.8469792 L123.940077,40.8469792 L123.940077,47.8890334 L121.038169,47.8890334 Z M121.038169,59.1570413 L121.038169,52.1149871 L123.940077,52.1149871 L123.940077,59.1570413 L121.038169,59.1570413 Z M70.2552354,25.3530177 L73.1571438,25.3530177 L73.1571438,18.3109635 L70.2552354,18.3109635 L70.2552354,25.3530177 Z M70.2552354,36.6210256 L73.1571438,36.6210256 L73.1571438,29.5789714 L70.2552354,29.5789714 L70.2552354,36.6210256 Z M70.2552354,47.8890334 L73.1571438,47.8890334 L73.1571438,40.8469792 L70.2552354,40.8469792 L70.2552354,47.8890334 Z M70.2552354,59.1570413 L73.1571438,59.1570413 L73.1571438,52.1149871 L70.2552354,52.1149871 L70.2552354,59.1570413 Z" id="path-1"></path>
        <filter x="-10.3%" y="-7.6%" width="120.5%" height="121.1%" filterUnits="objectBoundingBox" id="filter-2">
            <feOffset dx="0" dy="2" in="SourceAlpha" result="shadowOffsetOuter1"></feOffset>
            <feGaussianBlur stdDeviation="2" in="shadowOffsetOuter1" result="shadowBlurOuter1"></feGaussianBlur>
            <feColorMatrix values="0 0 0 0 0   0 0 0 0 0   0 0 0 0 0  0 0 0 0.5 0" type="matrix" in="shadowBlurOuter1"></feColorMatrix>
        </filter>
    </defs>
    <g id="Service-Section" stroke="none" stroke-width="1" fill="none" fill-rule="evenodd">
        <g id="Finalized" transform="translate(-1065.000000, -239.000000)">
            <g id="Group-18" transform="translate(126.000000, 241.000000)">
                <g id="Group-14" transform="translate(880.000000, 0.000000)">
                    <g id="building">
                        <use fill="black" fill-opacity="1" filter="url(#filter-2)" xlink:href="#path-1"></use>
                        <use fill="#FFFFFF" fill-rule="evenodd" xlink:href="#path-1"></use>
                    </g>
                </g>
            </g>
        </g>
    </g>
</svg>