<?xml version="1.0" encoding="UTF-8"?>
<svg width="45px" height="59px" viewBox="0 0 45 59" version="1.1" xmlns="http://www.w3.org/2000/svg" xmlns:xlink="http://www.w3.org/1999/xlink">
    <!-- Generator: Sketch 41.2 (35397) - http://www.bohemiancoding.com/sketch -->
    <title>keys</title>
    <desc>Created with Sketch.</desc>
    <defs></defs>
    <g id="07---ALL-PAGES---SEO-Changes" stroke="none" stroke-width="1" fill="none" fill-rule="evenodd">
        <g id="about-us" transform="translate(-167.000000, -1348.000000)" fill="#DA7900">
            <g id="keys" transform="translate(167.000000, 1348.000000)">
                <path d="M4.379,57.055 C4.172,57.055 3.961,57.016 3.766,56.938 C3.566,56.859 1.797,56.121 1.191,54.312 C0.918,53.488 0.801,52.16 1.809,50.523 L2.992,48.598 C3.203,48.254 3.531,47.996 3.914,47.875 L4.758,47.609 L3.906,44.02 C3.801,43.578 3.879,43.117 4.117,42.734 C4.359,42.352 4.742,42.078 5.184,41.984 L8.902,41.164 L8.906,38.469 C8.906,38.18 8.984,37.891 9.125,37.641 L11.715,33.078 C10.012,29.852 10.113,25.91 12.043,22.758 C13.391,20.566 15.484,18.965 17.949,18.238 C18.336,18.074 19.133,17.824 19.973,18.031 C20.875,18.262 21.426,19.18 21.195,20.082 C20.965,20.988 20.039,21.535 19.145,21.309 C17.289,21.934 15.844,23.027 14.918,24.531 C13.484,26.867 13.543,29.848 15.062,32.125 C15.418,32.656 15.445,33.34 15.129,33.895 L12.277,38.922 L12.273,42.527 C12.273,43.32 11.723,44 10.949,44.172 L7.582,44.914 L8.398,48.355 C8.602,49.215 8.109,50.086 7.27,50.352 L5.531,50.906 L4.676,52.297 C4.426,52.699 4.32,53.043 4.383,53.242 C4.418,53.359 4.523,53.477 4.641,53.574 L7.859,52.809 L18.25,35.938 C18.602,35.367 19.266,35.051 19.918,35.148 C22.02,35.445 24.094,34.785 25.645,33.359 C25.637,33.359 26,32.949 26.152,32.367 C26.391,31.465 27.324,30.93 28.215,31.164 C29.117,31.402 29.656,32.324 29.418,33.227 C29.023,34.734 28.09,35.691 27.984,35.797 C25.926,37.691 23.266,38.648 20.586,38.594 L10.371,55.172 C10.137,55.555 9.762,55.824 9.324,55.93 L4.766,57.012 C4.641,57.039 4.508,57.055 4.379,57.055 L4.379,57.055 Z" id="Fill-19"></path>
                <path d="M12.117,30.039 C11.965,30.039 11.809,30.02 11.656,29.977 C10.965,29.781 9.758,29.344 9.008,28.988 C5.422,27.328 2.688,24.352 1.32,20.621 C-0.039,16.895 0.129,12.863 1.805,9.27 C3.477,5.664 6.453,2.93 10.188,1.562 C13.922,0.203 17.949,0.375 21.535,2.047 C25.141,3.719 27.875,6.695 29.238,10.434 C30.602,14.156 30.43,18.188 28.754,21.777 C28.363,22.625 27.355,22.988 26.512,22.594 C25.668,22.203 25.301,21.195 25.695,20.352 C26.988,17.578 27.117,14.469 26.07,11.59 C25.016,8.703 22.898,6.398 20.117,5.105 C17.344,3.812 14.23,3.68 11.352,4.73 C8.465,5.785 6.16,7.902 4.867,10.688 C3.574,13.469 3.441,16.578 4.496,19.457 C5.547,22.34 7.664,24.637 10.449,25.93 C11.016,26.203 12.035,26.57 12.582,26.727 C13.477,26.98 14,27.918 13.746,28.812 C13.531,29.559 12.855,30.039 12.117,30.039 L12.117,30.039 Z" id="Fill-20"></path>
                <path d="M39.078,58.344 C37.176,58.344 35.652,57.141 34.898,55.051 L34.047,52.707 C33.906,52.324 33.914,51.906 34.059,51.527 L34.469,50.457 L30.613,48.648 C30.203,48.457 29.887,48.109 29.734,47.68 C29.586,47.254 29.613,46.785 29.812,46.379 L31.738,42.465 L29.293,40.516 C29.062,40.336 28.883,40.094 28.777,39.82 L26.586,34.336 C22.633,33.629 19.297,30.852 17.914,27.035 C15.797,21.16 18.848,14.664 24.719,12.547 C25.953,12.102 27.246,11.875 28.555,11.875 C33.312,11.875 37.594,14.879 39.207,19.352 C40.598,23.219 39.777,27.512 37.133,30.582 L44.484,50.969 C44.637,51.391 44.617,51.855 44.426,52.258 L42.223,56.953 C42.078,57.266 41.84,57.527 41.539,57.699 C41.352,57.805 40.355,58.344 39.078,58.344 L39.078,58.344 Z M37.434,52.145 L38.07,53.902 C38.453,54.969 38.891,54.969 39.078,54.969 C39.207,54.969 39.336,54.949 39.453,54.918 L41.078,51.453 L33.613,30.75 C33.383,30.121 33.551,29.418 34.035,28.953 C36.316,26.777 37.102,23.457 36.035,20.492 C34.902,17.355 31.898,15.246 28.559,15.246 C27.641,15.246 26.738,15.406 25.867,15.719 C21.746,17.203 19.605,21.766 21.094,25.891 C22.148,28.805 24.832,30.855 27.93,31.113 C28.566,31.164 29.121,31.574 29.359,32.168 L31.75,38.156 L34.906,40.672 C35.527,41.164 35.719,42.027 35.371,42.738 L33.605,46.324 L37.324,48.07 C38.125,48.445 38.5,49.375 38.184,50.203 L37.434,52.145 Z" id="Fill-21"></path>
                <path d="M27.574,23.664 C26.305,23.664 25.164,22.863 24.734,21.668 C24.176,20.117 24.984,18.391 26.539,17.824 C28.062,17.277 29.855,18.117 30.402,19.645 C30.672,20.383 30.637,21.199 30.297,21.926 C29.957,22.656 29.355,23.211 28.602,23.484 C28.262,23.605 27.922,23.664 27.574,23.664 L27.574,23.664 Z M27.574,20.289 C27.535,20.289 27.496,20.297 27.461,20.305 C27.355,20.344 27.281,20.414 27.238,20.5 C27.199,20.59 27.195,20.695 27.23,20.789 C27.266,20.891 27.379,21.02 27.566,21.02 C27.887,20.926 27.98,20.723 27.914,20.527 C27.867,20.406 27.746,20.289 27.574,20.289 L27.574,20.289 Z" id="Fill-22"></path>
            </g>
        </g>
    </g>
</svg>