<?xml version="1.0" encoding="UTF-8"?>
<svg width="72px" height="51px" viewBox="0 0 72 51" version="1.1" xmlns="http://www.w3.org/2000/svg" xmlns:xlink="http://www.w3.org/1999/xlink">
    <!-- Generator: Sketch 41.2 (35397) - http://www.bohemiancoding.com/sketch -->
    <title>hart hat</title>
    <desc>Created with Sketch.</desc>
    <defs></defs>
    <g id="07---ALL-PAGES---SEO-Changes" stroke="none" stroke-width="1" fill="none" fill-rule="evenodd">
        <g id="about-us" transform="translate(-154.000000, -1573.000000)" stroke="#DA7900" fill="#DA7900">
            <path d="M215.549701,1611.67597 C216.047515,1611.67232 216.545284,1611.66881 217.043052,1611.66554 C218.310213,1611.65789 219.576417,1611.65406 220.838796,1611.63876 C221.156304,1611.63111 221.469986,1611.62442 221.787493,1611.60146 C222.012235,1611.58712 222.23602,1611.56417 222.463631,1611.53834 C222.620472,1611.51539 222.777313,1611.4934 222.934154,1611.46375 C223.043177,1611.4408 223.151245,1611.4188 223.255487,1611.39202 C223.835033,1611.25431 224.440401,1610.99992 224.772254,1610.48062 C224.817202,1610.40985 224.858325,1610.33526 224.887972,1610.26066 C224.93292,1610.15642 224.966392,1610.04357 224.981694,1609.92786 C225.007515,1609.77484 225.004646,1609.618 224.981694,1609.46881 C224.944396,1609.25554 224.869801,1609.05375 224.765559,1608.87109 C224.607762,1608.58323 224.395453,1608.33267 224.160191,1608.10888 C223.801561,1607.7579 223.394157,1607.46239 222.979102,1607.18218 C222.882511,1607.11906 222.788789,1607.05499 222.692198,1606.99569 C222.565004,1606.91727 222.437809,1606.83885 222.310615,1606.76808 L222.302964,1606.72313 C222.041881,1605.21689 221.824791,1603.70394 221.645954,1602.18813 C221.604831,1601.84767 221.571358,1601.51104 221.534061,1601.17536 C221.462335,1600.62259 221.350442,1600.07652 221.223248,1599.53905 C221.074058,1598.89256 220.899046,1598.24989 220.719253,1597.61488 C220.282202,1596.08759 219.792552,1594.57465 219.273255,1593.07223 C218.888803,1591.95521 218.48905,1590.84203 218.071126,1589.73649 C217.726841,1588.82891 217.372036,1587.92803 216.998104,1587.03576 C216.725545,1586.38545 216.445335,1585.73895 216.143129,1585.10777 C215.888741,1584.58464 215.627658,1584.0577 215.280504,1583.591 C215.033766,1583.25915 214.753556,1582.94451 214.465696,1582.64613 C214.118541,1582.28367 213.748435,1581.93652 213.370678,1581.60371 C212.224017,1580.59859 210.979808,1579.70631 209.680132,1578.91063 C206.18755,1576.7732 202.279914,1575.33102 198.25656,1574.59177 C196.896633,1574.34503 195.525231,1574.17671 194.150959,1574.08395 C193.362929,1574.03135 192.573942,1574.00553 191.785912,1574.0017 C191.625245,1573.99787 191.460753,1574.0017 191.296262,1574.0017 C190.863036,1574.00935 190.433636,1574.02752 190.004236,1574.06482 C189.118658,1574.13272 188.236905,1574.25896 187.366629,1574.44258 C186.630241,1574.59942 185.898636,1574.79356 185.181375,1575.02499 C181.236441,1576.30267 177.724732,1578.68207 174.773444,1581.56258 C174.291444,1582.03311 173.820921,1582.51893 173.364744,1583.02006 C172.674261,1583.77462 172.016293,1584.56265 171.388929,1585.37267 C170.802688,1586.13871 170.246094,1586.92674 169.730623,1587.74155 C169.655071,1587.86109 169.584301,1587.98063 169.509706,1588.10018 C169.464758,1588.19007 169.464758,1588.19007 169.431286,1588.28284 L164.369338,1604.30931 L164.361687,1604.31696 L164.335866,1604.33992 C164.145552,1604.49963 163.932287,1604.63447 163.716152,1604.76167 C163.487585,1604.89651 163.256149,1605.01892 163.020888,1605.13847 C162.34475,1605.48658 161.646616,1605.79261 160.947526,1606.09864 C160.0849,1606.4764 159.217493,1606.84268 158.354867,1607.21948 C157.780103,1607.47387 157.208207,1607.7273 156.647787,1608.01516 C156.214561,1608.2399 155.76986,1608.47516 155.444702,1608.85196 C155.306988,1609.01263 155.19127,1609.19625 155.111893,1609.39804 C155.06025,1609.53193 155.022952,1609.67442 155.011476,1609.81979 C154.996175,1609.93551 154.996175,1610.05505 155.011476,1610.17077 C155.022952,1610.26066 155.041123,1610.35056 155.064075,1610.4395 C155.235262,1611.05635 155.717261,1611.53452 156.222212,1611.9008 C156.322629,1611.97157 156.426871,1612.03851 156.532069,1612.10642 C156.673608,1612.19536 156.823755,1612.2776 156.972945,1612.35985 C157.204381,1612.48322 157.443468,1612.59511 157.690206,1612.69648 C157.978067,1612.81603 158.276447,1612.92409 158.578653,1613.02164 C159.050132,1613.167 159.532131,1613.28655 160.020825,1613.35732 C160.379455,1613.41374 160.741911,1613.44339 161.104367,1613.46252 C161.478299,1613.48069 161.847449,1613.48834 162.221381,1613.49216 C162.964463,1613.49599 163.708502,1613.47304 164.451584,1613.44339 C165.535125,1613.40227 166.614842,1613.33532 167.698384,1613.26073 C169.184548,1613.15935 170.667843,1613.03981 172.154964,1612.91644 C173.895516,1612.7749 175.632244,1612.62189 177.373753,1612.47557 C178.40087,1612.39714 179.427987,1612.33785 180.45893,1612.28908 C181.479353,1612.2403 182.49882,1612.20301 183.519243,1612.16571 C185.984707,1612.08346 188.446346,1612.02034 190.907984,1611.97157 C193.842757,1611.91093 196.777723,1611.86402 199.712361,1611.82563 C199.718842,1611.83328 199.725457,1611.8408 199.732204,1611.8482 C199.780021,1611.90463 199.799148,1611.91132 199.855573,1611.96009 L199.922517,1612.00887 C202.844159,1613.84314 205.76867,1615.67742 208.694138,1617.50787 C210.991285,1618.94239 213.281737,1620.38073 215.59036,1621.79326 C215.780674,1621.90898 215.970987,1622.02852 216.165125,1622.14041 C216.43099,1622.2896 216.707374,1622.40915 217.005755,1622.47609 C217.207544,1622.52487 217.416984,1622.54399 217.622599,1622.53634 C217.783265,1622.52869 217.940106,1622.5067 218.096947,1622.46557 C218.20884,1622.43497 218.316907,1622.39385 218.422106,1622.34985 C219.172839,1622.01705 219.669183,1621.32178 220.072762,1620.63799 C220.155008,1620.50028 220.233428,1620.36161 220.308023,1620.22007 C220.454344,1619.95516 220.592058,1619.68547 220.734554,1619.41674 C220.801499,1619.30102 220.864618,1619.18147 220.936344,1619.06193 C220.987986,1618.96821 221.040585,1618.87927 221.089359,1618.78172 C221.163954,1618.62106 221.223248,1618.44891 221.264371,1618.27773 C221.301668,1618.11323 221.320795,1617.94109 221.31697,1617.76895 C221.31697,1617.64654 221.305494,1617.51934 221.283498,1617.39597 C221.163954,1616.70836 220.734554,1616.11829 220.225777,1615.65542 C220.125361,1615.56552 220.023988,1615.47563 219.915921,1615.39338 C219.800203,1615.30731 219.68831,1615.22506 219.568766,1615.14664 C219.497997,1615.09883 219.423402,1615.05388 219.34785,1615.00893 L219.396624,1615.03475 L215.549701,1611.67597 Z M212.93107,1611.69581 C212.115601,1611.70199 211.299798,1611.70801 210.483464,1611.71336 C207.962577,1611.73516 205.440975,1611.75854 202.91899,1611.78681 C204.682078,1612.89307 206.444947,1613.99954 208.208313,1615.10552 C210.031112,1616.24549 211.851041,1617.38067 213.67384,1618.51681 C214.783203,1619.2073 215.892566,1619.90256 217.013406,1620.57487 C217.062179,1620.60452 217.114778,1620.6313 217.166421,1620.65712 C217.293615,1620.71641 217.432286,1620.77284 217.57,1620.75754 C217.71919,1620.74319 217.846384,1620.64182 217.950626,1620.54523 C217.977404,1620.51845 217.9994,1620.49645 218.022352,1620.47063 C218.283435,1620.19042 218.477574,1619.85379 218.665018,1619.52098 C218.836204,1619.2073 219.000696,1618.88979 219.169013,1618.57228 C219.25891,1618.41161 219.25891,1618.41161 219.34785,1618.25095 C219.392799,1618.17253 219.441572,1618.09411 219.482695,1618.01569 C219.497997,1617.98221 219.512342,1617.94874 219.519993,1617.91145 C219.531469,1617.87415 219.53912,1617.83685 219.53912,1617.79573 C219.542945,1617.62741 219.453048,1617.46674 219.359326,1617.33572 C219.273255,1617.21236 219.172839,1617.10429 219.064771,1617.00387 C218.91845,1616.8652 218.757784,1616.74183 218.589467,1616.63376 C218.526348,1616.58882 218.455578,1616.54769 218.388634,1616.50657 L218.33986,1616.4731 C216.546708,1615.00893 214.850147,1613.43191 213.109595,1611.90845 L213.050301,1611.85203 C213.031174,1611.83003 213.012047,1611.8109 212.997702,1611.78891 C212.973258,1611.75918 212.950981,1611.72808 212.93107,1611.69581 Z M191.476055,1575.77955 C191.080127,1575.78338 190.684199,1575.79868 190.288271,1575.8245 C189.477288,1575.88475 188.670131,1575.99282 187.870624,1576.15731 C187.23561,1576.2845 186.608245,1576.44517 185.992358,1576.63548 C182.200439,1577.80414 178.837921,1580.08694 176.017652,1582.83644 C175.557649,1583.28497 175.113903,1583.74401 174.679721,1584.21836 C173.918469,1585.0523 173.197383,1585.92257 172.521245,1586.82632 C172.031595,1587.48333 171.561072,1588.16043 171.130715,1588.85856 L171.097243,1588.91785 L166.001823,1605.04188 L165.9607,1605.15377 C165.94253,1605.18724 165.923403,1605.22454 165.905232,1605.25514 C165.848807,1605.33643 165.781863,1605.41198 165.713962,1605.48275 C165.613546,1605.58699 165.505479,1605.68072 165.39263,1605.77444 C165.033999,1606.05752 164.638071,1606.28991 164.238318,1606.50987 C163.510538,1606.9058 162.748328,1607.24913 161.986119,1607.58576 C161.119668,1607.97021 160.249392,1608.33649 159.378159,1608.71425 C159.079779,1608.84144 158.780442,1608.97533 158.482062,1609.11018 C158.100479,1609.28136 157.723678,1609.46116 157.353572,1609.6553 C157.25698,1609.7079 157.155608,1609.75954 157.062842,1609.81596 C156.96912,1609.86856 156.883048,1609.92403 156.808453,1609.99862 L156.796977,1610.00628 C156.845751,1610.08852 156.916521,1610.16312 156.983465,1610.22719 C157.110659,1610.35056 157.253155,1610.4548 157.39852,1610.54852 C157.861392,1610.85073 158.373994,1611.07452 158.89616,1611.25431 C159.344687,1611.40732 159.812341,1611.53069 160.282864,1611.59764 C160.637669,1611.65024 161.000125,1611.67606 161.358755,1611.69136 C161.776679,1611.71049 162.199385,1611.71336 162.617309,1611.71049 C163.894989,1611.70284 165.168844,1611.63876 166.442699,1611.56034 C167.424868,1611.50105 168.407994,1611.43028 169.390163,1611.35473 C170.492832,1611.26961 171.594544,1611.17971 172.692431,1611.08982 C174.273274,1610.95497 175.85316,1610.81343 177.433046,1610.68624 C177.724732,1610.66424 178.020244,1610.64512 178.310973,1610.62695 C180.717144,1610.4768 183.126184,1610.39551 185.53618,1610.32378 C188.125013,1610.24536 190.717671,1610.19372 193.314155,1610.14495 C199.515113,1610.03305 205.719896,1609.96898 211.925636,1609.92403 C213.628891,1609.90968 215.332146,1609.89821 217.032533,1609.88673 C218.291086,1609.87908 219.553465,1609.87621 220.809149,1609.86091 C220.962165,1609.85709 221.111355,1609.85326 221.260545,1609.84943 C221.585704,1609.83509 221.914687,1609.81214 222.23602,1609.77101 C222.500928,1609.73754 222.759142,1609.69259 223.012574,1609.61417 L223.065173,1609.59983 L223.106296,1609.58453 C223.065173,1609.53575 223.02405,1609.4908 222.982928,1609.44586 C222.73619,1609.19625 222.45598,1608.97916 222.169076,1608.78119 C221.820965,1608.53828 221.458509,1608.31832 221.089359,1608.12036 L220.977467,1608.04863 C220.891395,1607.97021 220.860792,1607.95587 220.793848,1607.86214 C220.741249,1607.79137 220.701082,1607.71295 220.670479,1607.62688 C220.656134,1607.58576 220.648483,1607.54464 220.637007,1607.49969 C220.592058,1607.2606 220.550935,1607.02151 220.509813,1606.78243 C220.311849,1605.62047 220.136837,1604.45181 219.98669,1603.2822 C219.935048,1602.88244 219.886274,1602.48651 219.841326,1602.08676 C219.815504,1601.82568 219.788726,1601.56746 219.755254,1601.31021 C219.740909,1601.19736 219.725607,1601.08929 219.706481,1600.98122 C219.586937,1600.28978 219.419576,1599.61365 219.239783,1598.93751 C219.030343,1598.14948 218.798907,1597.36814 218.555994,1596.59159 C217.906634,1594.49623 217.185548,1592.41904 216.404212,1590.36385 C215.94134,1589.1426 215.459341,1587.92134 214.928568,1586.72591 C214.749731,1586.3185 214.563243,1585.91492 214.361454,1585.52282 C214.211307,1585.22348 214.054466,1584.9251 213.852677,1584.65254 C213.650887,1584.37903 213.419451,1584.1256 213.18419,1583.87886 C212.840861,1583.52023 212.47458,1583.17977 212.096822,1582.85557 C211.058229,1581.95086 209.92687,1581.14849 208.753431,1580.43123 C205.443512,1578.40568 201.74149,1577.04289 197.935227,1576.3438 C195.954631,1575.98134 193.945344,1575.8025 191.931276,1575.77955 L191.476055,1575.77955 Z M193.885095,1578.0547 C194.864395,1578.06235 195.842738,1578.11113 196.818213,1578.20007 C199.407046,1578.44298 201.962407,1578.96228 204.457518,1579.67571 C205.309623,1579.92245 206.154078,1580.18831 206.990882,1580.47139 C207.281612,1580.57276 207.573298,1580.67318 207.861159,1580.77838 C208.021825,1580.83385 208.200662,1580.88645 208.343158,1580.98017 C208.432098,1581.03946 208.510519,1581.11788 208.574594,1581.20395 C208.637713,1581.29003 208.682661,1581.39044 208.708483,1581.49564 C208.802205,1581.84662 208.664491,1582.23107 208.365154,1582.44434 C208.189186,1582.57153 207.969226,1582.627 207.755961,1582.605 C207.659369,1582.59353 207.636417,1582.58301 207.547477,1582.55623 C207.356207,1582.48929 207.165894,1582.41852 206.979406,1582.35061 C206.156947,1582.06371 205.335445,1581.79402 204.502466,1581.54441 C203.807201,1581.3388 203.105242,1581.14466 202.403283,1580.96869 C201.816085,1580.82333 201.229844,1580.68848 200.639778,1580.56894 C196.930105,1579.81438 193.082719,1579.56382 189.335749,1580.18449 C188.826972,1580.27056 188.322977,1580.37098 187.818982,1580.48669 C186.989828,1580.67701 186.171195,1580.91609 185.371688,1581.20013 C184.378043,1581.55493 183.414044,1581.97764 182.484474,1582.47016 C181.36746,1583.06788 180.298264,1583.76314 179.312269,1584.55882 C178.307148,1585.37267 177.373753,1586.27355 176.548425,1587.2672 C176.290211,1587.58088 176.039648,1587.90221 175.808212,1588.23502 C175.636069,1588.4808 175.468708,1588.72754 175.322387,1588.98958 L175.263094,1589.07852 C175.202844,1589.15025 175.192324,1589.17224 175.116772,1589.23632 C174.953237,1589.37403 174.736146,1589.4448 174.52288,1589.44098 C174.414813,1589.43715 174.306746,1589.41515 174.209198,1589.37403 C174.108782,1589.33291 174.018885,1589.27362 173.940465,1589.19806 C173.671731,1588.94846 173.58566,1588.5487 173.727199,1588.21207 C173.768322,1588.10783 173.832397,1588.01028 173.891691,1587.91369 C173.966286,1587.79032 174.044707,1587.66695 174.123127,1587.54358 C174.362214,1587.18113 174.624253,1586.83015 174.892987,1586.48969 C175.882807,1585.23113 177.037118,1584.09595 178.292803,1583.09848 C179.693852,1581.98433 181.232615,1581.04711 182.85745,1580.30403 C184.26615,1579.65754 185.737969,1579.15641 187.24326,1578.79491 C188.599361,1578.46976 189.981284,1578.25649 191.371813,1578.14842 C192.066121,1578.092 192.757561,1578.06618 193.451869,1578.0547 L193.885095,1578.0547 Z M217.652246,1618.7406 C216.972283,1619.65582 215.60088,1618.64018 216.277018,1617.72496 C216.956981,1616.80973 218.328384,1617.82537 217.652246,1618.7406 Z M215.776848,1617.35103 C215.096885,1618.26625 213.726439,1617.25061 214.402577,1616.33443 C215.081583,1615.4192 216.452986,1616.4358 215.776848,1617.35103 Z M213.90145,1615.96145 C213.221487,1616.87668 211.851041,1615.86008 212.531004,1614.94485 C213.207142,1614.02963 214.577588,1615.04623 213.90145,1615.96145 Z M216.915858,1604.71672 C216.956981,1604.72437 216.998104,1604.73202 217.039227,1604.74254 C217.203719,1604.78749 217.353865,1604.88121 217.465758,1605.0084 C217.521226,1605.0677 217.57,1605.14229 217.603472,1605.21689 C217.64077,1605.29626 217.667547,1605.37468 217.681893,1605.4598 C217.726841,1605.75531 217.618774,1606.06134 217.394032,1606.26313 C217.301266,1606.34538 217.185548,1606.41232 217.066005,1606.45058 C217.024882,1606.4611 216.983759,1606.46875 216.942636,1606.4764 C216.72937,1606.50987 216.516105,1606.54334 216.29997,1606.57299 C214.305029,1606.84937 212.302437,1607.06264 210.296976,1607.25295 C207.912802,1607.48152 205.529583,1607.67183 203.14254,1607.84015 C201.80174,1607.93291 200.459985,1608.01899 199.119185,1608.10123 C198.155187,1608.15766 197.198839,1608.21695 196.234841,1608.2619 C195.047057,1608.3145 193.859273,1608.35179 192.667664,1608.36996 C188.360274,1608.44169 184.049059,1608.2992 179.753146,1608.00081 C177.848101,1607.86597 175.943057,1607.70148 174.040881,1607.49969 C172.670435,1607.35815 171.302858,1607.19748 169.935281,1607.00717 L169.782265,1606.98422 C169.741142,1606.97657 169.696194,1606.96987 169.658896,1606.9584 C169.495361,1606.90962 169.345214,1606.81207 169.237147,1606.68584 C169.180723,1606.62176 169.136731,1606.55099 169.098477,1606.47257 C168.976064,1606.20001 168.99806,1605.87485 169.158727,1605.62429 C169.2075,1605.5497 169.262969,1605.48658 169.327044,1605.43015 C169.390163,1605.37468 169.460932,1605.32974 169.539353,1605.29626 C169.655071,1605.24366 169.782265,1605.21402 169.90946,1605.21402 C169.950582,1605.21402 169.991705,1605.22071 170.036654,1605.22454 C170.342685,1605.26566 170.649673,1605.30678 170.955704,1605.34791 C174.257972,1605.77444 177.579368,1606.08047 180.899806,1606.29278 C184.598959,1606.529 188.30385,1606.64471 192.010653,1606.60359 C193.284508,1606.58829 194.558363,1606.55482 195.832218,1606.49839 C196.892808,1606.45058 197.953397,1606.39033 199.011118,1606.32338 C200.348092,1606.24496 201.682197,1606.15889 203.019171,1606.06517 C205.623305,1605.8825 208.223615,1605.67306 210.822967,1605.41485 C211.929462,1605.30678 213.034999,1605.19107 214.136712,1605.05718 C214.959171,1604.95963 215.780674,1604.85539 216.595482,1604.73202 L216.662426,1604.72054 L216.78962,1604.70907 C216.830743,1604.71289 216.871866,1604.71672 216.915858,1604.71672 Z" id="hart-hat"></path>
        </g>
    </g>
</svg>