<?xml version="1.0" encoding="UTF-8"?>
<svg width="68px" height="68px" viewBox="0 0 68 68" version="1.1" xmlns="http://www.w3.org/2000/svg" xmlns:xlink="http://www.w3.org/1999/xlink">
    <!-- Generator: Sketch 41.2 (35397) - http://www.bohemiancoding.com/sketch -->
    <title>Combined Shape</title>
    <desc>Created with Sketch.</desc>
    <defs></defs>
    <g id="07---ALL-PAGES---SEO-Changes" stroke="none" stroke-width="1" fill="none" fill-rule="evenodd">
        <g id="about-us" transform="translate(-156.000000, -1119.000000)" fill="#DA7900">
            <path d="M213.611323,1176.48246 C219.680393,1170.38143 223.437093,1161.98143 223.437093,1152.71545 C223.437093,1143.44845 219.680393,1135.04845 213.611323,1128.94742 C213.591735,1128.92268 213.583488,1128.89484 213.562869,1128.87525 C213.543281,1128.85464 213.510292,1128.84639 213.490704,1128.8268 C207.385551,1122.75773 198.985554,1119 189.718546,1119 C180.45257,1119 172.052572,1122.75773 165.951543,1128.8268 C165.926801,1128.84639 165.898966,1128.85464 165.878347,1128.87525 C165.85876,1128.89484 165.850512,1128.9268 165.829894,1128.94742 C159.761855,1135.04845 156,1143.45257 156,1152.71545 C156,1161.98143 159.757731,1170.38143 165.826801,1176.48246 C165.846389,1176.5072 165.854636,1176.53503 165.874224,1176.55875 C165.894842,1176.58349 165.926801,1176.58761 165.951543,1176.6072 C172.052572,1182.67627 180.45257,1186.434 189.718546,1186.434 C198.98143,1186.434 207.385551,1182.67627 213.48658,1176.6072 C213.510292,1176.58761 213.539158,1176.57936 213.562869,1176.55875 C213.583488,1176.53503 213.591735,1176.5072 213.611323,1176.48246 L213.611323,1176.48246 Z M210.410293,1171.76699 C209.954623,1171.31236 209.221633,1171.31236 208.771118,1171.76699 C208.315448,1172.22163 208.315448,1172.95462 208.771118,1173.40617 L211.07421,1175.70926 C205.730913,1180.67524 198.666997,1183.79998 190.882464,1184.08555 L190.882464,1175.93916 C190.882464,1175.29895 190.362876,1174.77936 189.72267,1174.77936 C189.082464,1174.77936 188.562877,1175.29895 188.562877,1175.93916 L188.562877,1184.08555 C180.778343,1183.79998 173.715459,1180.67524 168.37113,1175.70926 L170.675253,1173.40617 C171.129892,1172.95462 171.129892,1172.21854 170.675253,1171.76699 C170.219583,1171.31236 169.486594,1171.31236 169.036078,1171.76699 L166.731955,1174.07009 C161.79072,1168.75462 158.665979,1161.72782 158.359793,1153.98762 L167.207213,1153.98762 C167.847419,1153.98762 168.367007,1153.46803 168.367007,1152.82782 C168.367007,1152.18762 167.847419,1151.66803 167.207213,1151.66803 L158.348453,1151.66803 C158.606185,1143.84329 161.739174,1136.73608 166.728863,1131.36701 L169.031955,1133.67113 C169.257728,1133.8969 169.555666,1134.00927 169.853604,1134.00927 C170.151542,1134.00927 170.445356,1133.8969 170.675253,1133.67113 C171.129892,1133.21546 171.129892,1132.4835 170.675253,1132.03195 L168.37113,1129.72886 C173.715459,1124.76288 180.778343,1121.63814 188.562877,1121.35258 L188.562877,1129.49897 C188.562877,1130.13917 189.082464,1130.65876 189.72267,1130.65876 C190.362876,1130.65876 190.882464,1130.13917 190.882464,1129.49897 L190.882464,1121.34845 C198.666997,1121.63402 205.730913,1124.75876 211.07421,1129.72474 L208.771118,1132.02783 C208.315448,1132.47938 208.315448,1133.21546 208.771118,1133.66701 C208.996891,1133.89278 209.294829,1134.00515 209.592767,1134.00515 C209.890705,1134.00515 210.18452,1133.89278 210.414416,1133.66701 L212.717508,1131.36391 C217.730909,1136.75566 220.868021,1143.90824 221.097918,1151.7804 L212.93091,1151.7804 C212.290704,1151.7804 211.771117,1152.29999 211.771117,1152.9402 C211.771117,1153.5804 212.290704,1154.09999 212.93091,1154.09999 L221.081423,1154.09999 C220.743279,1161.79586 217.626785,1168.77524 212.709261,1174.06596 L210.410293,1171.76699 Z M206.67318,1138.71649 L189.501021,1151.43401 L179.981436,1148.49484 C179.373189,1148.30927 178.720612,1148.64741 178.531952,1149.25978 C178.342261,1149.87216 178.684529,1150.52061 179.2969,1150.70927 L189.376278,1153.82267 C189.38865,1153.82679 189.396897,1153.82679 189.409268,1153.82679 C189.505144,1153.85463 189.606175,1153.87112 189.707206,1153.87112 L189.714423,1153.87112 C189.758753,1153.87112 189.798959,1153.85463 189.843289,1153.8505 C189.920608,1153.84226 189.996897,1153.83813 190.073185,1153.81442 C190.18968,1153.77422 190.298959,1153.71752 190.398959,1153.64535 C190.398959,1153.64535 190.403082,1153.64535 190.403082,1153.64123 L208.053592,1140.58144 C208.569056,1140.19896 208.678334,1139.47422 208.29586,1138.95876 C207.913386,1138.44329 207.188644,1138.33401 206.67318,1138.71649 Z" id="Combined-Shape"></path>
        </g>
    </g>
</svg>