<?xml version="1.0" encoding="UTF-8"?>
<svg width="67px" height="87px" viewBox="0 0 67 87" version="1.1" xmlns="http://www.w3.org/2000/svg" xmlns:xlink="http://www.w3.org/1999/xlink">
    <!-- Generator: Sketch 41.2 (35397) - http://www.bohemiancoding.com/sketch -->
    <title>Page 1</title>
    <desc>Created with Sketch.</desc>
    <defs></defs>
    <g id="07---ALL-PAGES---SEO-Changes" stroke="none" stroke-width="1" fill="none" fill-rule="evenodd">
        <g id="home-full-2c-SEO-Changes" transform="translate(-1107.000000, -1357.000000)" fill="#DA7900">
            <path d="M1140.5,1357 C1137.76482,1357 1135.26612,1357.55627 1133.29553,1358.60686 C1131.32494,1359.65745 1129.66176,1361.39745 1129.66176,1363.70427 L1129.66176,1364.90909 L1122.76471,1364.90909 C1121.67694,1364.90909 1120.79412,1365.79491 1120.79412,1366.88636 L1120.79412,1370.84091 L1111.92647,1370.84091 C1109.23202,1370.84091 1107,1373.0805 1107,1375.78409 L1107,1439.05682 C1107,1441.76041 1109.23202,1444 1111.92647,1444 L1169.07353,1444 C1171.76798,1444 1174,1441.76041 1174,1439.05682 L1174,1375.78409 C1174,1373.0805 1171.76798,1370.84091 1169.07353,1370.84091 L1160.20588,1370.84091 L1160.20588,1366.88636 C1160.20588,1365.79491 1159.32306,1364.90909 1158.23529,1364.90909 L1151.33824,1364.90909 L1151.33824,1363.70427 C1151.33824,1361.39745 1149.67506,1359.65745 1147.70447,1358.60686 C1145.73388,1357.55627 1143.23518,1357 1140.5,1357 Z M1141,1361 C1143.208,1361 1145.18267,1361.48933 1146.43733,1362.156 C1147.69333,1362.82267 1148,1363.46933 1148,1363.78133 L1148,1367 C1148,1368.104 1148.896,1369 1150,1369 L1157,1369 L1157,1377 L1125,1377 L1125,1369 L1132,1369 C1133.104,1369 1134,1368.104 1134,1367 L1134,1363.78133 C1134,1363.46933 1134.30667,1362.82267 1135.56267,1362.156 C1136.81733,1361.48933 1138.792,1361 1141,1361 Z M1111.98333,1375 L1120.83333,1375 L1120.83333,1378.93939 C1120.83333,1380.02667 1121.7144,1380.90909 1122.8,1380.90909 L1158.2,1380.90909 C1159.2856,1380.90909 1160.16667,1380.02667 1160.16667,1378.93939 L1160.16667,1375 L1169.01667,1375 C1169.59487,1375 1170,1375.40576 1170,1375.98485 L1170,1439.01515 C1170,1439.59424 1169.59487,1440 1169.01667,1440 L1111.98333,1440 C1111.40513,1440 1111,1439.59424 1111,1439.01515 L1111,1375.98485 C1111,1375.40576 1111.40513,1375 1111.98333,1375 Z M1130.71646,1389.0228 C1130.27612,1389.0839 1129.87291,1389.29243 1129.56653,1389.61387 L1124.99736,1394.18972 L1122.41766,1391.60626 C1121.64044,1390.80665 1120.36054,1390.80133 1119.57801,1391.59563 C1118.79017,1392.38993 1118.81139,1393.6717 1119.61912,1394.43943 L1123.59809,1398.4242 C1124.37531,1399.19193 1125.6194,1399.19193 1126.39663,1398.4242 L1132.36507,1392.44704 C1133.78424,1391.11347 1132.64493,1388.74254 1130.71646,1389.0228 Z M1141.89705,1394.00399 C1140.79915,1394.05591 1139.95053,1394.99178 1140.00224,1396.09406 C1140.05396,1397.19634 1140.98611,1398.04967 1142.08401,1397.99775 L1159.98453,1397.99775 C1161.09304,1398.01373 1162,1397.1138 1162,1396.00087 C1162,1394.88795 1161.09304,1393.98802 1159.98453,1394.00399 L1142.08401,1394.00399 C1142.02169,1393.99867 1141.95937,1393.99867 1141.89705,1394.00399 Z M1130.71646,1403.0228 C1130.27612,1403.0839 1129.87291,1403.29243 1129.56653,1403.61387 L1124.99736,1408.18972 L1122.41766,1405.60626 C1121.64044,1404.80665 1120.36054,1404.80133 1119.57801,1405.59563 C1118.79017,1406.38993 1118.81139,1407.6717 1119.61912,1408.43943 L1123.59809,1412.4242 C1124.37531,1413.19193 1125.6194,1413.19193 1126.39663,1412.4242 L1132.36507,1406.44704 C1133.78424,1405.11347 1132.64493,1402.74254 1130.71646,1403.0228 Z M1141.89705,1408.00399 C1140.79915,1408.05591 1139.95053,1408.99178 1140.00224,1410.09406 C1140.05396,1411.19634 1140.98611,1412.04967 1142.08401,1411.99775 L1159.98453,1411.99775 C1161.09304,1412.01373 1162,1411.1138 1162,1410.00087 C1162,1408.88795 1161.09304,1407.98802 1159.98453,1408.00399 L1142.08401,1408.00399 C1142.02169,1407.99867 1141.95937,1407.99867 1141.89705,1408.00399 Z M1130.71646,1418.0228 C1130.27612,1418.0839 1129.87291,1418.29243 1129.56653,1418.61387 L1124.99736,1423.18972 L1122.41766,1420.60626 C1121.64044,1419.80665 1120.36054,1419.80133 1119.57801,1420.59563 C1118.79017,1421.38993 1118.81139,1422.6717 1119.61912,1423.43943 L1123.59809,1427.4242 C1124.37531,1428.19193 1125.6194,1428.19193 1126.39663,1427.4242 L1132.36507,1421.44704 C1133.78424,1420.11347 1132.64493,1417.74254 1130.71646,1418.0228 Z M1141.89705,1423.00399 C1140.79915,1423.05591 1139.95053,1423.99178 1140.00224,1425.09406 C1140.05396,1426.19634 1140.98611,1427.04967 1142.08401,1426.99775 L1159.98453,1426.99775 C1161.09304,1427.01373 1162,1426.1138 1162,1425.00087 C1162,1423.88795 1161.09304,1422.98802 1159.98453,1423.00399 L1142.08401,1423.00399 C1142.02169,1422.99867 1141.95937,1422.99867 1141.89705,1423.00399 Z" id="Page-1"></path>
        </g>
    </g>
</svg>