<?xml version="1.0" encoding="UTF-8"?>
<svg width="86px" height="89px" viewBox="0 0 86 89" version="1.1" xmlns="http://www.w3.org/2000/svg" xmlns:xlink="http://www.w3.org/1999/xlink">
    <!-- Generator: Sketch 41.2 (35397) - http://www.bohemiancoding.com/sketch -->
    <title>Combined Shape</title>
    <desc>Created with Sketch.</desc>
    <defs></defs>
    <g id="07---ALL-PAGES---SEO-Changes" stroke="none" stroke-width="1" fill="none" fill-rule="evenodd">
        <g id="home-full-2c-SEO-Changes" transform="translate(-697.000000, -1356.000000)" stroke="#DA7900" fill="#DA7900">
            <path d="M720.983021,1444 L720.983021,1444 C719.098058,1444 717.200397,1443.60878 715.3466,1442.83554 C714.877957,1442.64223 714.535131,1442.22915 714.440479,1441.73437 C714.34121,1441.23959 714.494731,1440.72755 714.854871,1440.3674 L721.406647,1433.83746 L717.110363,1429.55819 L710.665936,1435.98112 C710.310413,1436.33667 709.792135,1436.49316 709.295789,1436.3942 C708.799442,1436.29525 708.38505,1435.95811 708.191129,1435.49094 C705.967957,1430.17379 706.892547,1424.75308 710.665936,1420.9916 C713.245784,1418.4199 716.680965,1417 720.32969,1417 C723.981878,1417 727.417058,1418.4199 729.996907,1420.9916 C732.580218,1423.56676 734,1426.98764 734,1430.6283 C734,1434.26895 732.580218,1437.68869 729.996907,1440.26499 C727.544031,1442.70552 724.427436,1444 720.983021,1444 L720.983021,1444 Z M747.470235,1411.96162 L770.747803,1435.23919 C771.879836,1436.37578 773.386169,1437 774.995207,1437 C776.596257,1437 778.10259,1436.37578 779.239187,1435.23919 C780.375785,1434.10716 781,1432.59968 781,1430.99521 C781,1429.39073 780.375785,1427.87984 779.239187,1426.7478 L756.508006,1404.01662 L765.040487,1395.48414 C766.236441,1395.82441 767.483285,1396 768.754272,1396 C772.332776,1396 775.704982,1394.59416 778.243934,1392.04051 C782.079444,1388.18978 783.047542,1382.69833 780.824375,1377.35151 C780.630755,1376.88521 780.215856,1376.54156 779.721435,1376.44668 C779.225861,1376.3437 778.713,1376.50569 778.352268,1376.86323 L771.919029,1383.32199 L767.632892,1379.01422 L773.958949,1372.66422 C774.313918,1372.30669 774.47181,1371.79179 774.372696,1371.29425 C774.273581,1370.79324 773.935899,1370.37669 773.467985,1370.18231 C768.182633,1367.9723 762.699052,1368.89449 758.944216,1372.66422 C756.369537,1375.24911 754.973863,1378.6752 755.000371,1382.31418 C755.016263,1384.09264 755.373734,1385.82395 756.040571,1387.43251 L747.982233,1395.49085 L731.74942,1379.25804 L732.895714,1378.12556 C733.544267,1377.48525 733.872576,1376.56176 733.791939,1375.59277 C733.301204,1369.69694 743.065208,1363.00273 748.92407,1359.97293 L750,1359.35082 L749.338776,1357 L748.128067,1357.0273 C731.433879,1357.38669 725.06585,1364.65069 724.89536,1364.86337 L715.247704,1374.38835 C711.801043,1377.78778 711.602906,1380.20456 712.138567,1381.69217 L708.092888,1385.68641 C707.91779,1385.85928 707.710437,1385.88657 707.602153,1385.88657 C707.493869,1385.88657 707.287669,1385.85928 707.111419,1385.68641 L706.284312,1384.86868 C705.27174,1383.86443 703.503484,1383.86898 702.490912,1384.86868 L698.782756,1388.52968 C697.739081,1389.56009 697.739081,1391.24445 698.782756,1392.27485 L707.849824,1401.22663 C708.357838,1401.72477 709.028278,1402 709.748253,1402 C710.464771,1402 711.138667,1401.72477 711.643225,1401.22663 L715.351381,1397.56562 C716.395055,1396.53067 716.395055,1394.852 715.351381,1393.81591 L714.523122,1393.00387 C714.253564,1392.73205 714.253564,1392.30101 714.523122,1392.03033 L718.519268,1388.09409 L718.523875,1388.09409 C719.013458,1388.30791 719.536447,1388.41368 720.08478,1388.41368 C721.119,1388.41368 722.125073,1388.02342 723.008974,1387.50036 L739.038914,1403.5303 L726.433749,1416.13067 C726.155153,1416.41379 726,1416.78976 726,1417.18725 C726,1417.58134 726.155153,1417.96184 726.433749,1418.24042 L732.759909,1424.56174 C733.047565,1424.85391 733.432616,1425 733.813137,1425 C734.193658,1425 734.574179,1424.85391 734.866365,1424.56174 L747.470235,1411.96162 Z M741.906646,1402.18387 L725,1385.26657 L729.267425,1381 L777.11831,1428.8753 C777.686994,1429.44892 778,1430.20609 778,1431.0126 C778,1431.8191 777.686994,1432.57743 777.11831,1433.14646 C775.976355,1434.28451 773.991693,1434.28451 772.849738,1433.14646 L748.82518,1409.10676 C748.757206,1408.97859 748.670346,1408.86027 748.566251,1408.75618 L742.240091,1402.43486 C742.138888,1402.33346 742.02643,1402.2498 741.906646,1402.18387 Z M758.758264,1386.15209 C758.271556,1384.93377 758.011458,1383.62991 758.000477,1382.29337 C757.973866,1379.46899 759.062573,1376.80713 761.069913,1374.79768 C762.895609,1372.96584 765.204917,1372 767.744462,1372 C768.512689,1372 769.285544,1372.08126 770.063027,1372.24959 L764.404295,1377.93201 C763.808457,1378.52985 763.808457,1379.49569 764.404295,1380.09005 L770.862492,1386.56998 C771.147106,1386.8602 771.535847,1387.01924 771.938472,1387.01924 C772.345725,1387.01924 772.729838,1386.8602 773.014452,1386.56998 L778.771526,1380.79237 C779.472649,1384.20763 778.550545,1387.49983 776.137109,1389.92139 C774.157537,1391.90763 771.540475,1393 768.761437,1393 C767.476075,1393 766.221227,1392.76811 765.042779,1392.3242 L759.162658,1386.43986 C759.041141,1386.31905 758.904217,1386.22313 758.758264,1386.15209 Z M721.281125,1385.21026 C720.636456,1385.5908 720.01429,1385.79341 719.582684,1385.60991 C718.447864,1385.12537 717.127366,1385.33271 716.312002,1386.13839 L712.222497,1390.13074 C710.767067,1391.5528 710.767067,1393.86279 712.222497,1395.28485 L712.802593,1395.85277 L709.586116,1399 L701,1390.61077 L704.216478,1387.46354 L704.80234,1388.03484 C706.20818,1389.41295 708.668111,1389.40845 710.07741,1388.03484 L714.361818,1383.8453 C715.105679,1383.123 715.299429,1382.0266 714.862339,1381.05865 C714.586706,1380.45129 715.046862,1378.98529 717.235774,1376.84207 L726.976316,1367.31699 C727.025906,1367.26403 731.287249,1362.56742 742,1361 C736.801046,1364.43344 730.120137,1370.0811 730.633344,1376.18175 C730.637957,1376.28767 730.620658,1376.34852 730.616045,1376.35302 L729.720459,1377.22908 L729.491384,1377 L721.281125,1385.21026 Z M718.771585,1440.77499 C719.513719,1440.92384 720.254694,1441 720.987566,1441 C723.615714,1441 725.998414,1440.01225 727.875166,1438.14177 C729.888536,1436.13627 731,1433.46382 731,1430.62866 C731,1427.78889 729.888536,1425.1199 727.875166,1423.1144 C725.862954,1421.10429 723.181548,1420 720.332265,1420 C717.487613,1420 714.809681,1421.10429 712.792837,1423.1144 C710.396244,1425.50299 709.51402,1428.69009 710.254996,1432.08374 L716.026502,1426.33266 C716.619282,1425.74185 717.582551,1425.74185 718.178805,1426.33266 L724.641502,1432.77378 C724.930946,1433.05764 725.089561,1433.44535 725.089561,1433.84691 C725.089561,1434.25194 724.930946,1434.63503 724.641502,1434.92351 L718.771585,1440.77499 Z M750,1396.63572 L754.360758,1401 L762,1393.36545 L757.635724,1389 L750,1396.63572 Z M730,1416.99878 L734.001218,1421 L745,1410.00122 L740.999857,1406 L730,1416.99878 Z" id="Combined-Shape"></path>
        </g>
    </g>
</svg>