<?xml version="1.0" encoding="UTF-8"?>
<svg width="105px" height="88px" viewBox="0 0 105 88" version="1.1" xmlns="http://www.w3.org/2000/svg" xmlns:xlink="http://www.w3.org/1999/xlink">
    <!-- Generator: Sketch 41.2 (35397) - http://www.bohemiancoding.com/sketch -->
    <title>home owner</title>
    <desc>Created with Sketch.</desc>
    <defs></defs>
    <g id="07---ALL-PAGES---SEO-Changes" stroke="none" stroke-width="1" fill="none" fill-rule="evenodd">
        <g id="home-full-2c-SEO-Changes" transform="translate(-288.000000, -1357.000000)" fill="#DA7900">
            <path d="M378.873111,1386.40608 L390.203564,1393.39424 L392.610948,1389.29719 L340.309974,1357 L318.609772,1370.26311 L318.609772,1361.82602 L306.077877,1361.82602 L306.077877,1377.97799 L288,1389.06995 L290.407384,1393.16475 L301.735587,1386.17884 L301.735587,1440.17623 L289.203692,1440.17623 L289.203692,1445 L391.398256,1445 L391.398256,1440.17623 L378.866362,1440.17623 L378.866362,1386.40608 L378.873111,1386.40608 Z M310.903894,1366.88827 L313.795004,1366.88827 L313.795004,1373.39946 L310.903894,1375.08688 L310.903894,1366.88827 Z M349.714519,1440.40347 L349.714519,1414.37223 L362.246414,1414.37223 L362.246414,1440.40347 L349.714519,1440.40347 Z M367.061182,1440.40347 L367.061182,1409.54621 L344.888503,1409.54621 L344.888503,1440.40347 L306.561604,1440.40347 L306.561604,1383.51497 L312.827551,1379.65641 L318.373533,1376.28157 L340.071485,1363.02071 L373.819855,1383.75346 L373.819855,1440.64196 L367.061182,1440.64196 L367.061182,1440.40347 Z M313.795004,1398.70174 L335.967683,1398.70174 L335.967683,1383.75346 L313.795004,1383.75346 L313.795004,1398.70174 Z M318.609772,1388.57722 L331.143916,1388.57722 L331.143916,1393.87797 L318.609772,1393.87797 L318.609772,1388.57722 Z M313.795004,1430.76269 L335.967683,1430.76269 L335.967683,1408.59001 L313.795004,1408.59001 L313.795004,1430.76269 Z M331.152916,1425.94792 L327.294352,1425.94792 L327.294352,1413.41378 L331.152916,1413.41378 L331.152916,1425.94792 Z M318.609772,1413.40478 L322.468335,1413.40478 L322.468335,1425.93892 L318.609772,1425.93892 L318.609772,1413.40478 Z M344.888503,1398.70174 L367.061182,1398.70174 L367.061182,1383.75346 L344.888503,1383.75346 L344.888503,1398.70174 Z M349.714519,1388.57722 L362.246414,1388.57722 L362.246414,1393.87797 L349.714519,1393.87797 L349.714519,1388.57722 Z" id="home-owner"></path>
        </g>
    </g>
</svg>