<?xml version="1.0" encoding="UTF-8"?>
<svg width="93px" height="97px" viewBox="0 0 93 97" version="1.1" xmlns="http://www.w3.org/2000/svg" xmlns:xlink="http://www.w3.org/1999/xlink">
    <!-- Generator: Sketch 43.2 (39069) - http://www.bohemiancoding.com/sketch -->
    <title>Combined Shape</title>
    <desc>Created with Sketch.</desc>
    <defs>
        <path d="M565.983021,87 L565.983021,87 C564.098058,87 562.200397,86.608779 560.3466,85.8355423 C559.877957,85.6422331 559.535131,85.2291498 559.440479,84.7343703 C559.34121,84.2395909 559.494731,83.7275517 559.854871,83.3673983 L566.406647,76.83746 L562.110363,72.5581931 L555.665936,78.9811208 C555.310413,79.3366716 554.792135,79.49316 554.295789,79.3942041 C553.799442,79.2952482 553.38505,78.9581078 553.191129,78.490944 C550.967957,73.1737908 551.892547,67.7530791 555.665936,63.9916045 C558.245784,61.419902 561.680965,60 565.32969,60 C568.981878,60 572.417058,61.419902 574.996907,63.9916045 C577.580218,66.566759 579,69.9876412 579,73.6282975 C579,77.2689538 577.580218,80.6886853 574.996907,83.2649904 C572.544031,85.7055189 569.427436,87 565.983021,87 L565.983021,87 Z M592.470235,54.961619 L579.866365,67.561743 C579.574179,67.8539143 579.193658,68 578.813137,68 C578.432616,68 578.047565,67.8539143 577.759909,67.561743 L571.433749,61.2404234 C571.155153,60.9618415 571,60.5813392 571,60.1872477 C571,59.7897587 571.155153,59.4137863 571.433749,59.1306745 L584.038914,46.5302977 L568.008974,30.5003579 C567.125073,31.023418 566.119,31.4136781 565.08478,31.4136781 C564.536447,31.4136781 564.013458,31.3079081 563.523875,31.0940936 L563.519268,31.0940936 L559.523122,35.0303283 C559.253564,35.3010084 559.253564,35.7320494 559.523122,36.0038669 L560.351381,36.8159072 C561.395055,37.8519979 561.395055,39.5306695 560.351381,40.5656229 L556.643225,44.2266283 C556.138667,44.7247706 555.464771,45 554.748253,45 C554.028278,45 553.357838,44.7247706 552.849824,44.2266283 L543.782756,35.2748503 C542.739081,34.2444461 542.739081,32.560088 543.782756,31.5296838 L547.490912,27.8686784 C548.503484,26.8689817 550.27174,26.8644325 551.284312,27.8686784 L552.111419,28.6864053 C552.287669,28.8592767 552.493869,28.8865721 552.602153,28.8865721 C552.710437,28.8865721 552.91779,28.8592767 553.092888,28.6864053 L557.138567,24.6921677 C556.602906,23.2045644 556.801043,20.7877777 560.247704,17.3883539 L569.89536,7.86337099 C570.06585,7.65069376 576.433879,0.386685875 593.128067,0.0272954735 L594.338776,0 L595,2.35082266 L593.92407,2.97293199 C588.065208,6.00272955 578.301204,12.6969444 578.791939,18.5927667 C578.872576,19.561756 578.544267,20.4852529 577.895714,21.1255592 L576.74942,22.258036 L592.982233,38.4908485 L601.040571,30.4325101 C600.373734,28.823946 600.016263,27.0926366 600.000371,25.3141807 C599.973863,21.6751967 601.369537,18.2491136 603.944216,15.6642201 C607.699052,11.8944873 613.182633,10.9723029 618.467985,13.1823058 C618.935899,13.3766935 619.273581,13.7932386 619.372696,14.2942497 C619.47181,14.7917896 619.313918,15.3066856 618.958949,15.6642201 L612.632892,22.0142181 L616.919029,26.3219883 L623.352268,19.8632257 C623.713,19.5056912 624.225861,19.3437015 624.721435,19.4466807 C625.215856,19.5415604 625.630755,19.8852101 625.824375,20.3515091 C628.047542,25.6983278 627.079444,31.1897801 623.243934,35.0405078 C620.704982,37.5941604 617.332776,39 613.754272,39 C612.483285,39 611.236441,38.8244075 610.040487,38.4841407 L601.508006,47.0166217 L624.239187,69.7478033 C625.375785,70.8798357 626,72.3907338 626,73.9952071 C626,75.5996805 625.375785,77.1071551 624.239187,78.2391875 C623.10259,79.3757845 621.596257,80 619.995207,80 C618.386169,80 616.879836,79.3757845 615.747803,78.2391875 L592.470235,54.961619 Z M593.82518,52.1067611 L617.849738,76.1464566 C618.991693,77.2845145 620.976355,77.2845145 622.11831,76.1464566 C622.686994,75.5774276 623,74.8191047 623,74.0125979 C623,73.2060912 622.686994,72.4489155 622.11831,71.8752976 L574.267425,24 L570,28.26657 L586.906646,45.1838681 C587.02643,45.2498003 587.138888,45.3334641 587.240091,45.4348597 L593.566251,51.7561792 C593.670346,51.8602683 593.757206,51.978586 593.82518,52.1067611 Z M610.042779,35.3241977 C611.221227,35.7681145 612.476075,36 613.761437,36 C616.540475,36 619.157537,34.9076285 621.137109,32.921393 C623.550545,30.4998342 624.472649,27.2076285 623.771526,23.7923715 L618.014452,29.5699834 C617.729838,29.860199 617.345725,30.0192371 616.938472,30.0192371 C616.535847,30.0192371 616.147106,29.860199 615.862492,29.5699834 L609.404295,23.0900498 C608.808457,22.4956882 608.808457,21.5298507 609.404295,20.9320066 L615.063027,15.2495854 C614.285544,15.0812604 613.512689,15 612.744462,15 C610.204917,15 607.895609,15.9658375 606.069913,17.7976783 C604.062573,19.807131 602.973866,22.4689884 603.000477,25.2933665 C603.011458,26.6299108 603.271556,27.9337728 603.758264,29.1520924 C603.904217,29.2231307 604.041141,29.3190541 604.162658,29.4398625 L610.042779,35.3241977 Z M574.720459,20.2290751 L575.616045,19.3530232 C575.620658,19.3485158 575.637957,19.2876672 575.633344,19.1817454 C575.120137,13.0811019 581.801046,7.43344305 587,4 C576.287249,5.5674169 572.025906,10.2640334 571.976316,10.3169943 L562.235774,19.8420662 C560.046862,21.9852919 559.586706,23.4512944 559.862339,24.0586543 C560.299429,25.0265991 560.105679,26.1230021 559.361818,26.8452985 L555.07741,31.0348427 C553.668111,32.4084453 551.20818,32.4129526 549.80234,31.0348427 L549.216478,30.4635412 L546,33.6107701 L554.586116,42 L557.802593,38.8527711 L557.222497,38.2848501 C555.767067,36.8627939 555.767067,34.5527978 557.222497,33.1307416 L561.312002,29.1383922 C562.127366,28.3327106 563.447864,28.1253744 564.582684,28.6099102 C565.01429,28.7934093 565.636456,28.5907991 566.281125,28.2102597 L574.491384,20 L574.720459,20.2290751 Z M563.771585,83.7749876 L569.641502,77.9235123 C569.930946,77.6350349 570.089561,77.2519369 570.089561,76.8469147 C570.089561,76.4453541 569.930946,76.0576405 569.641502,75.7737788 L563.178805,69.3326556 C562.582551,68.7418539 561.619282,68.7418539 561.026502,69.3326556 L555.254996,75.0837409 C554.51402,71.6900929 555.396244,68.5029947 557.792837,66.1144019 C559.809681,64.1042914 562.487613,63 565.332265,63 C568.181548,63 570.862954,64.1042914 572.875166,66.1144019 C574.888536,68.1198967 576,70.7888895 576,73.6286609 C576,76.4638167 574.888536,79.1362712 572.875166,81.141766 C570.998414,83.0122534 568.615714,84 565.987566,84 C565.254694,84 564.513719,83.923842 563.771585,83.7749876 Z M595,39.6357241 L599.360758,44 L607,36.3654485 L602.635724,32 L595,39.6357241 Z M575,59.998782 L579.001218,64 L590,53.001218 L585.999857,49 L575,59.998782 Z" id="path-1"></path>
        <filter x="-8.9%" y="-6.3%" width="117.9%" height="117.2%" filterUnits="objectBoundingBox" id="filter-2">
            <feMorphology radius="0.5" operator="dilate" in="SourceAlpha" result="shadowSpreadOuter1"></feMorphology>
            <feOffset dx="0" dy="2" in="shadowSpreadOuter1" result="shadowOffsetOuter1"></feOffset>
            <feGaussianBlur stdDeviation="2" in="shadowOffsetOuter1" result="shadowBlurOuter1"></feGaussianBlur>
            <feComposite in="shadowBlurOuter1" in2="SourceAlpha" operator="out" result="shadowBlurOuter1"></feComposite>
            <feColorMatrix values="0 0 0 0 0   0 0 0 0 0   0 0 0 0 0  0 0 0 0.5 0" type="matrix" in="shadowBlurOuter1"></feColorMatrix>
        </filter>
    </defs>
    <g id="About-V2" stroke="none" stroke-width="1" fill="none" fill-rule="evenodd">
        <g id="exterior-crew-about-us-page-dropdown" transform="translate(-793.000000, -1945.000000)">
            <g id="Group-7" transform="translate(0.000000, 1810.000000)">
                <g id="Group-3">
                    <g id="Group-2" transform="translate(254.000000, 138.000000)">
                        <g id="Combined-Shape">
                            <use fill="black" fill-opacity="1" filter="url(#filter-2)" xlink:href="#path-1"></use>
                            <use stroke="#FFFFFF" stroke-width="1" fill="#FFFFFF" fill-rule="evenodd" xlink:href="#path-1"></use>
                        </g>
                    </g>
                </g>
            </g>
        </g>
    </g>
</svg>