<?xml version="1.0" encoding="UTF-8"?>
<svg width="52px" height="75px" viewBox="0 0 52 75" version="1.1" xmlns="http://www.w3.org/2000/svg" xmlns:xlink="http://www.w3.org/1999/xlink">
    <!-- Generator: Sketch 45.2 (43514) - http://www.bohemiancoding.com/sketch -->
    <title>window</title>
    <desc>Created with Sketch.</desc>
    <defs>
        <path d="M66.9285637,0 C78.9892737,0 88.8571273,9.99942504 88.8571273,22.2209445 L88.8571273,64.8110882 C88.8571273,65.8490532 88.0540546,66.6628336 87.029747,66.6628336 L46.8273803,66.6628336 C45.8030727,66.6628336 45,65.8490532 45,64.8110882 L45,22.2209445 C45,9.99942504 54.8678537,0 66.9285637,0 Z M85.2023667,62.9593428 L85.2023667,22.2209445 C85.2023667,11.9973348 77.0176522,3.70349075 66.9285637,3.70349075 C56.8394752,3.70349075 48.6547606,11.9973348 48.6547606,22.2209445 L48.6547606,62.9593428 L85.2023667,62.9593428 Z M81.7509872,24.5599913 C82.2681749,24.5599913 82.7171295,24.9285076 82.7171295,25.4424651 L82.7171295,58.6855853 C82.7171295,59.2034736 82.2681749,59.6456932 81.7509872,59.6456932 L68.7718486,59.6456932 C68.2507053,59.6456932 67.8057062,59.2005255 67.8057062,58.6855853 L67.8057062,25.5191165 C67.8057062,25.0012282 68.2546608,24.5599913 68.7718486,24.5599913 L81.7509872,24.5599913 Z M80.8629669,57.7264602 L80.8629669,26.4025729 L69.7379909,26.4025729 L69.7379909,57.7264602 L80.8629669,57.7264602 Z M65.9624213,24.5599913 C66.4796091,24.5599913 66.9285637,24.9285076 66.9285637,25.4424651 L66.9285637,58.6855853 C66.9285637,59.2034736 66.4796091,59.6456932 65.9624213,59.6456932 L52.9832827,59.6456932 C52.4621394,59.6456932 52.0171404,59.2005255 52.0171404,58.6855853 L52.0171404,25.5191165 C52.0171404,25.0012282 52.466095,24.5599913 52.9832827,24.5599913 L65.9624213,24.5599913 Z M65.074401,57.7264602 L65.074401,26.4025729 L53.9494251,26.4025729 L53.9494251,57.7264602 L65.074401,57.7264602 Z M65.8705603,7.91587067 C66.1676846,7.83666409 66.4778583,7.99006419 66.6264204,8.13845121 C66.7800015,8.2918513 66.9285637,8.51443184 66.9285637,8.81621896 L66.9285637,21.827154 C66.9285637,22.3555321 66.4738431,22.8057062 65.9488566,22.8057062 L52.9225664,22.8057062 C52.695708,22.8057062 52.3935647,22.7315127 52.2439988,22.5039191 C52.0914214,22.2773281 52.0171404,22.053745 52.0171404,21.7519578 C52.9225664,14.5341324 58.6432128,8.81621896 65.8705603,7.91587067 Z M65.1177116,20.9217926 L65.0384115,20.9217926 L65.0384115,9.94416084 C59.4673311,11.0721027 55.1770973,15.3562767 54.0478243,20.9217926 L65.1177116,20.9217926 Z M68.8596944,7.89428292 C76.0910571,8.79569377 81.8117035,14.442059 82.7171295,21.7507142 C82.7171295,22.0528575 82.6388333,22.3550008 82.4902711,22.5035629 C82.33669,22.6571441 82.1138468,22.8057062 81.8117035,22.8057062 L68.7854133,22.8057062 C68.2564116,22.8057062 67.8057062,22.3509856 67.8057062,21.8249953 L67.8057062,8.79970896 C67.8057062,8.57184675 67.8799873,8.27070727 68.1068457,8.12114133 C68.3347079,7.96856399 68.5585549,7.89428292 68.8596944,7.89428292 Z M69.6918432,20.9155541 L80.6824304,20.9155541 C79.5531574,15.3434699 75.2629236,11.0542399 69.6918432,9.92496682 L69.6918432,20.9155541 Z" id="path-1"></path>
        <filter x="-16.0%" y="-7.5%" width="131.9%" height="121.0%" filterUnits="objectBoundingBox" id="filter-2">
            <feOffset dx="0" dy="2" in="SourceAlpha" result="shadowOffsetOuter1"></feOffset>
            <feGaussianBlur stdDeviation="2" in="shadowOffsetOuter1" result="shadowBlurOuter1"></feGaussianBlur>
            <feColorMatrix values="0 0 0 0 0   0 0 0 0 0   0 0 0 0 0  0 0 0 0.5 0" type="matrix" in="shadowBlurOuter1"></feColorMatrix>
        </filter>
    </defs>
    <g id="Service-Section" stroke="none" stroke-width="1" fill="none" fill-rule="evenodd">
        <g id="Finalized" transform="translate(-460.000000, -240.000000)">
            <g id="Group-18" transform="translate(126.000000, 241.000000)">
                <g id="Group-16" transform="translate(293.000000, 1.000000)">
                    <g id="window">
                        <use fill="black" fill-opacity="1" filter="url(#filter-2)" xlink:href="#path-1"></use>
                        <use fill="#FFFFFF" fill-rule="evenodd" xlink:href="#path-1"></use>
                    </g>
                </g>
            </g>
        </g>
    </g>
</svg>