<?xml version="1.0" encoding="UTF-8"?>
<svg width="113px" height="96px" viewBox="0 0 113 96" version="1.1" xmlns="http://www.w3.org/2000/svg" xmlns:xlink="http://www.w3.org/1999/xlink">
    <!-- Generator: Sketch 43.2 (39069) - http://www.bohemiancoding.com/sketch -->
    <title>home owner</title>
    <desc>Created with Sketch.</desc>
    <defs>
        <path d="M223.873111,29.4060798 L235.203564,36.3942423 L237.610948,32.2971902 L185.309974,0 L163.609772,13.2631095 L163.609772,4.82601693 L151.077877,4.82601693 L151.077877,20.9779869 L133,32.0699512 L135.407384,36.1647534 L146.735587,29.1788408 L146.735587,83.176233 L134.203692,83.176233 L134.203692,88 L236.398256,88 L236.398256,83.176233 L223.866362,83.176233 L223.866362,29.4060798 L223.873111,29.4060798 Z M155.903894,9.88827244 L158.795004,9.88827244 L158.795004,16.399458 L155.903894,18.0868765 L155.903894,9.88827244 Z M194.714519,83.403472 L194.714519,57.3722292 L207.246414,57.3722292 L207.246414,83.403472 L194.714519,83.403472 Z M212.061182,83.403472 L212.061182,52.5462123 L189.888503,52.5462123 L189.888503,83.403472 L151.561604,83.403472 L151.561604,26.5149694 L157.827551,22.6564058 L163.373533,19.2815688 L185.071485,6.02070923 L218.819855,26.7534579 L218.819855,83.6419605 L212.061182,83.6419605 L212.061182,83.403472 Z M158.795004,41.701736 L180.967683,41.701736 L180.967683,26.7534579 L158.795004,26.7534579 L158.795004,41.701736 Z M163.609772,31.577225 L176.143916,31.577225 L176.143916,36.877969 L163.609772,36.877969 L163.609772,31.577225 Z M158.795004,73.7626876 L180.967683,73.7626876 L180.967683,51.5900084 L158.795004,51.5900084 L158.795004,73.7626876 Z M176.152916,68.9479201 L172.294352,68.9479201 L172.294352,56.4137755 L176.152916,56.4137755 L176.152916,68.9479201 Z M163.609772,56.4047759 L167.468335,56.4047759 L167.468335,68.9389206 L163.609772,68.9389206 L163.609772,56.4047759 Z M189.888503,41.701736 L212.061182,41.701736 L212.061182,26.7534579 L189.888503,26.7534579 L189.888503,41.701736 Z M194.714519,31.577225 L207.246414,31.577225 L207.246414,36.877969 L194.714519,36.877969 L194.714519,31.577225 Z" id="path-1"></path>
        <filter x="-6.7%" y="-5.7%" width="113.4%" height="115.9%" filterUnits="objectBoundingBox" id="filter-2">
            <feOffset dx="0" dy="2" in="SourceAlpha" result="shadowOffsetOuter1"></feOffset>
            <feGaussianBlur stdDeviation="2" in="shadowOffsetOuter1" result="shadowBlurOuter1"></feGaussianBlur>
            <feColorMatrix values="0 0 0 0 0   0 0 0 0 0   0 0 0 0 0  0 0 0 0.5 0" type="matrix" in="shadowBlurOuter1"></feColorMatrix>
        </filter>
    </defs>
    <g id="About-V2" stroke="none" stroke-width="1" fill="none" fill-rule="evenodd">
        <g id="exterior-crew-about-us-page-dropdown" transform="translate(-383.000000, -1946.000000)">
            <g id="Group-7" transform="translate(0.000000, 1810.000000)">
                <g id="Group-3">
                    <g id="Group-2" transform="translate(254.000000, 138.000000)">
                        <g id="home-owner">
                            <use fill="black" fill-opacity="1" filter="url(#filter-2)" xlink:href="#path-1"></use>
                            <use fill="#FFFFFF" fill-rule="evenodd" xlink:href="#path-1"></use>
                        </g>
                    </g>
                </g>
            </g>
        </g>
    </g>
</svg>