<?xml version="1.0" encoding="UTF-8"?>
<svg width="69px" height="70px" viewBox="0 0 69 70" version="1.1" xmlns="http://www.w3.org/2000/svg" xmlns:xlink="http://www.w3.org/1999/xlink">
    <!-- Generator: Sketch 41.2 (35397) - http://www.bohemiancoding.com/sketch -->
    <title>Page 1</title>
    <desc>Created with Sketch.</desc>
    <defs></defs>
    <g id="07---ALL-PAGES---SEO-Changes" stroke="none" stroke-width="1" fill="none" fill-rule="evenodd">
        <g id="about-us" transform="translate(-755.000000, -1347.000000)">
            <g id="Page-1" transform="translate(756.000000, 1348.000000)">
                <path d="M33.4977181,0.861281939 C15.0242839,0.861281939 0,15.8889888 0,34.359 C0,52.8324341 15.0277068,67.8567181 33.4977181,67.8567181 C51.9711522,67.8567181 67,52.8324341 67,34.359 C67,15.8855659 51.9711522,0.861281939 33.4977181,0.861281939 L33.4977181,0.861281939 Z" id="Fill-1" stroke="#DA7900" stroke-width="2"></path>
                <path d="M20.8261129,30.3993256 C23.2780559,30.3993256 25.2747522,28.4026293 25.2747522,25.9518272 C25.2747522,23.4998842 23.2780559,21.5031879 20.8261129,21.5031879 C18.3753108,21.5031879 16.3786145,23.4998842 16.3786145,25.9518272 C16.3831784,28.4071932 18.3753108,30.3993256 20.8261129,30.3993256 Z M46.1727462,30.3993256 C48.6246892,30.3993256 50.6213855,28.4026293 50.6213855,25.9518272 C50.6213855,23.4998842 48.6246892,21.5031879 46.1727462,21.5031879 C43.7219441,21.5031879 41.7252478,23.4998842 41.7252478,25.9518272 C41.7252478,28.4026293 43.7173802,30.3993256 46.1727462,30.3993256 Z M48.9635571,35.3602602 C47.7815129,35.3602602 46.8242396,36.3186744 46.8242396,37.4995776 C46.8242396,44.6078165 41.0965737,49.9703722 33.4977181,49.9703722 C25.8988624,49.9703722 20.1711965,44.6078165 20.1711965,37.4995776 C20.1711965,36.3186744 19.2127823,35.3602602 18.031879,35.3602602 C16.8509758,35.3602602 15.8925616,36.3186744 15.8925616,37.4995776 C15.8925616,47.0506318 23.460611,54.2490072 33.4977181,54.2490072 C43.5348251,54.2490072 51.1028746,47.0460679 51.1028746,37.4995776 C51.1028746,36.3186744 50.1490242,35.3602602 48.9635571,35.3602602 Z" id="Combined-Shape" fill="#DA7900"></path>
            </g>
        </g>
    </g>
</svg>