<?xml version="1.0" encoding="UTF-8"?>
<svg width="22px" height="22px" viewBox="0 0 22 22" version="1.1" xmlns="http://www.w3.org/2000/svg" xmlns:xlink="http://www.w3.org/1999/xlink">
    <!-- Generator: Sketch 41.2 (35397) - http://www.bohemiancoding.com/sketch -->
    <title>Page 1</title>
    <desc>Created with Sketch.</desc>
    <defs></defs>
    <g id="FINALIZED" stroke="none" stroke-width="1" fill="none" fill-rule="evenodd">
        <g id="portfolio-view-2" transform="translate(-1440.000000, -19.000000)" fill="#FFFFFF">
            <path d="M1451.89682,33.4635028 L1450.83625,32.4031037 L1449.77568,33.4635028 L1443.68168,39.5565028 C1442.86109,40.3776777 1441.93641,40.3776777 1441.11629,39.556967 C1440.29482,38.7360854 1440.29482,37.8114146 1441.11553,36.9912872 L1447.209,30.8968231 L1448.2694,29.83625 L1447.209,28.7756769 L1441.116,22.6816769 C1440.29482,21.8610854 1440.29482,20.9364146 1441.11553,20.1162872 C1441.93641,19.2948223 1442.86109,19.2948223 1443.68121,20.115533 L1449.77568,26.2089972 L1450.83625,27.2693963 L1451.89682,26.2089972 L1457.99082,20.1159972 C1458.81141,19.2948223 1459.73609,19.2948223 1460.55621,20.115533 C1461.37768,20.9364146 1461.37768,21.8610854 1460.55697,22.6812128 L1454.4635,28.7756769 L1453.4031,29.83625 L1454.4635,30.8968231 L1460.5565,36.9908231 C1461.37768,37.8114146 1461.37768,38.7360854 1460.55697,39.5562128 L1460.45145,39.6616554 L1460.36877,39.7858141 C1460.00001,40.3395365 1458.7733,40.3395365 1457.99129,39.556967 L1451.89682,33.4635028 Z" id="Page-1"></path>
        </g>
    </g>
</svg>