<?xml version="1.0" encoding="UTF-8"?>
<svg width="100px" height="115px" viewBox="0 0 100 115" version="1.1" xmlns="http://www.w3.org/2000/svg" xmlns:xlink="http://www.w3.org/1999/xlink">
    <!-- Generator: Sketch 41.2 (35397) - http://www.bohemiancoding.com/sketch -->
    <title>Page 1</title>
    <desc>Created with Sketch.</desc>
    <defs></defs>
    <g id="07---ALL-PAGES---SEO-Changes" stroke="none" stroke-width="1" fill="none" fill-rule="evenodd">
        <g id="target-audience-homeowners" transform="translate(-156.000000, -3767.000000)" fill="#DA7900">
            <g id="Group-6" transform="translate(0.000000, 3604.000000)">
                <g id="Group-6-Copy-2">
                    <g id="Group-6-Copy">
                        <path d="M156,172.631552 L156,208.659082 C156,254.257347 203.949754,277.254567 204.431233,277.483931 L205.538462,278 L206.64569,277.483931 C207.127169,277.254567 255.076923,254.257347 255.076923,208.659082 L255.076923,172.631552 L205.538462,163 L156,172.631552 Z M249.769231,208.849627 C249.769231,247.542796 212.48356,269.031435 205.538462,272.692308 C198.579487,269.031435 161.307692,247.603898 161.307692,208.849627 L161.307692,176.961457 L205.538462,168.307692 L249.769231,176.961457 L249.769231,208.849627 Z M202.119204,227.301799 L229.856599,193.076923 L233.846154,196.414312 L202.146766,235.538462 L180.769231,209.46445 L184.738114,206.099045 L202.119204,227.301799 Z" id="Page-1"></path>
                    </g>
                </g>
            </g>
        </g>
    </g>
</svg>