<?xml version="1.0" encoding="UTF-8"?>
<svg width="50px" height="76px" viewBox="0 0 50 76" version="1.1" xmlns="http://www.w3.org/2000/svg" xmlns:xlink="http://www.w3.org/1999/xlink">
    <!-- Generator: Sketch 41.2 (35397) - http://www.bohemiancoding.com/sketch -->
    <title>Page 1</title>
    <desc>Created with Sketch.</desc>
    <defs></defs>
    <g id="07---ALL-PAGES---SEO-Changes" stroke="none" stroke-width="1" fill="none" fill-rule="evenodd">
        <g id="services-1" transform="translate(-765.000000, -1127.000000)" fill="#DA7900">
            <g id="Page-1" transform="translate(765.000000, 1127.000000)">
                <path d="M25,0 C11.25,0 0,11.4 0,25.3333333 L0,73.8888889 C0,75.072237 0.915555556,76 2.08333333,76 L47.9166667,76 C49.0844444,76 50,75.072237 50,73.8888889 L50,25.3333333 C50,11.4 38.75,0 25,0 Z M45.8333333,71.7777778 L4.16666667,71.7777778 L4.16666667,25.3333333 C4.16666667,13.6777481 13.4977778,4.22222222 25,4.22222222 C36.5022222,4.22222222 45.8333333,13.6777481 45.8333333,25.3333333 L45.8333333,71.7777778 Z M41.8985344,28 L27.1014656,28 C26.5118377,28 26,28.503039 26,29.0934655 L26,66.9054141 C26,67.4924796 26.5073281,68 27.1014656,68 L41.8985344,68 C42.4881623,68 43,67.4958407 43,66.9054141 L43,29.0060779 C43,28.4201328 42.4881623,28 41.8985344,28 Z M40.886133,65.8119486 L28.2029312,65.8119486 L28.2029312,30.1006638 L40.886133,30.1006638 L40.886133,65.8119486 Z M23.8985344,28 L9.10146561,28 C8.51183766,28 8,28.503039 8,29.0934655 L8,66.9054141 C8,67.4924796 8.50732807,68 9.10146561,68 L23.8985344,68 C24.4881623,68 25,67.4958407 25,66.9054141 L25,29.0060779 C25,28.4201328 24.4881623,28 23.8985344,28 Z M22.886133,65.8119486 L10.2029312,65.8119486 L10.2029312,30.1006638 L22.886133,30.1006638 L22.886133,65.8119486 Z M23.7938068,9.02461145 C15.5541568,10.0510675 9.03224504,16.5698636 8,24.7986578 C8,25.1427149 8.08468529,25.3976143 8.25863346,25.6559429 C8.42914843,25.9154145 8.77361158,26 9.03224504,26 L23.8830697,26 C24.4815887,26 25,25.486772 25,24.8843863 L25,10.0510675 C25,9.70701041 24.8306294,9.45325402 24.6555369,9.27836785 C24.4861663,9.10919692 24.132548,8.93431075 23.7938068,9.02461145 Z M22.9355099,23.852215 L10.3151128,23.852215 C11.6025581,17.507162 16.4937058,12.6229229 22.8451027,11.3369952 L22.8451027,23.852215 L22.9355099,23.852215 Z M27.2016156,9 C26.8582969,9 26.6030966,9.08468529 26.3433187,9.25863346 C26.0846853,9.42914843 26,9.77246718 26,10.032245 L26,24.8819253 C26,25.4815887 26.5138337,26 27.1169303,26 L41.967755,26 C42.3122181,26 42.566274,25.8306294 42.7413665,25.6555369 C42.9107371,25.4861663 43,25.1417031 43,24.79724 C41.967755,16.464894 35.4458432,10.0276675 27.2016156,9 Z M28.1503198,23.8451027 L28.1503198,11.3151128 C34.5017166,12.6025581 39.3928644,17.4925614 40.6803097,23.8451027 L28.1503198,23.8451027 Z" id="Combined-Shape"></path>
            </g>
        </g>
    </g>
</svg>