<?xml version="1.0" encoding="UTF-8"?>
<svg width="70px" height="70px" viewBox="0 0 70 70" version="1.1" xmlns="http://www.w3.org/2000/svg" xmlns:xlink="http://www.w3.org/1999/xlink">
    <!-- Generator: Sketch 41.2 (35397) - http://www.bohemiancoding.com/sketch -->
    <title>building</title>
    <desc>Created with Sketch.</desc>
    <defs></defs>
    <g id="07---ALL-PAGES---SEO-Changes" stroke="none" stroke-width="1" fill="none" fill-rule="evenodd">
        <g id="services-1" transform="translate(-754.000000, -2141.000000)" fill="#DA7900">
            <path d="M770.382867,2211 L807.617133,2211 L824,2211 L824,2152.91481 L809.106484,2152.91481 L809.106484,2141 L768.893516,2141 L768.893516,2152.91481 L754,2152.91481 L754,2211 L770.382867,2211 Z M809.106484,2208.0213 L821.021297,2208.0213 L821.021297,2155.89352 L809.106484,2155.89352 L809.106484,2208.0213 Z M780.063891,2208.0213 L771.872219,2208.0213 L771.872219,2143.9787 L806.127781,2143.9787 L806.127781,2208.0213 L797.936109,2208.0213 L797.936109,2196.10648 L780.063891,2196.10648 L780.063891,2208.0213 Z M756.978703,2208.0213 L768.893516,2208.0213 L768.893516,2155.89352 L756.978703,2155.89352 L756.978703,2208.0213 Z M813.574062,2167.80833 L816.552766,2167.80833 L816.552766,2160.36205 L813.574062,2160.36205 L813.574062,2167.80833 Z M799.425938,2158.87222 L802.404641,2158.87222 L802.404641,2151.42594 L799.425938,2151.42594 L799.425938,2158.87222 Z M791.531659,2158.87222 L794.510362,2158.87222 L794.510362,2151.42594 L791.531659,2151.42594 L791.531659,2158.87222 Z M783.489638,2158.87222 L786.468341,2158.87222 L786.468341,2151.42594 L783.489638,2151.42594 L783.489638,2158.87222 Z M775.596313,2158.87222 L778.575016,2158.87222 L778.575016,2151.42594 L775.596313,2151.42594 L775.596313,2158.87222 Z M799.425938,2173.76573 L802.404641,2173.76573 L802.404641,2166.31945 L799.425938,2166.31945 L799.425938,2173.76573 Z M791.531659,2173.76573 L794.510362,2173.76573 L794.510362,2166.31945 L791.531659,2166.31945 L791.531659,2173.76573 Z M783.489638,2173.76573 L786.468341,2173.76573 L786.468341,2166.31945 L783.489638,2166.31945 L783.489638,2173.76573 Z M775.596313,2173.76573 L778.575016,2173.76573 L778.575016,2166.31945 L775.596313,2166.31945 L775.596313,2173.76573 Z M799.425938,2188.65925 L802.404641,2188.65925 L802.404641,2181.21297 L799.425938,2181.21297 L799.425938,2188.65925 Z M791.531659,2188.65925 L794.510362,2188.65925 L794.510362,2181.21297 L791.531659,2181.21297 L791.531659,2188.65925 Z M783.489638,2188.65925 L786.468341,2188.65925 L786.468341,2181.21297 L783.489638,2181.21297 L783.489638,2188.65925 Z M775.596313,2188.65925 L778.575016,2188.65925 L778.575016,2181.21297 L775.596313,2181.21297 L775.596313,2188.65925 Z M813.574062,2179.72314 L816.552766,2179.72314 L816.552766,2172.27686 L813.574062,2172.27686 L813.574062,2179.72314 Z M813.574062,2191.63795 L816.552766,2191.63795 L816.552766,2184.19167 L813.574062,2184.19167 L813.574062,2191.63795 Z M813.574062,2203.55277 L816.552766,2203.55277 L816.552766,2196.10648 L813.574062,2196.10648 L813.574062,2203.55277 Z M761.447234,2167.80833 L764.425938,2167.80833 L764.425938,2160.36205 L761.447234,2160.36205 L761.447234,2167.80833 Z M761.447234,2179.72314 L764.425938,2179.72314 L764.425938,2172.27686 L761.447234,2172.27686 L761.447234,2179.72314 Z M761.447234,2191.63795 L764.425938,2191.63795 L764.425938,2184.19167 L761.447234,2184.19167 L761.447234,2191.63795 Z M761.447234,2203.55277 L764.425938,2203.55277 L764.425938,2196.10648 L761.447234,2196.10648 L761.447234,2203.55277 Z" id="building"></path>
        </g>
    </g>
</svg>