<?xml version="1.0" encoding="UTF-8"?>
<svg width="54px" height="67px" viewBox="0 0 54 67" version="1.1" xmlns="http://www.w3.org/2000/svg" xmlns:xlink="http://www.w3.org/1999/xlink">
    <!-- Generator: Sketch 41.2 (35397) - http://www.bohemiancoding.com/sketch -->
    <title>Page 1</title>
    <desc>Created with Sketch.</desc>
    <defs>
        <polygon id="path-1" points="14.102 0.655 0.398 0.655 0.398 22.6625 14.102 22.6625 14.102 0.655"></polygon>
    </defs>
    <g id="07---ALL-PAGES---SEO-Changes" stroke="none" stroke-width="1" fill="none" fill-rule="evenodd">
        <g id="services-1" transform="translate(-765.000000, -1347.000000)">
            <g id="Page-1" transform="translate(792.000000, 1380.000000) scale(-1, 1) translate(-792.000000, -1380.000000) translate(765.000000, 1346.000000)">
                <polygon id="Fill-1" fill="#DA7900" points="0 15.5955 0 67.3455 41.938 67.3455 53.774 34.5955 34.75 34.5955 34.75 40.5955 45.226 40.5955 37.727 61.3455 6 61.3455 6 15.5955"></polygon>
                <g id="Group-4" transform="translate(17.000000, 0.345500)">
                    <mask id="mask-2" fill="white">
                        <use xlink:href="#path-1"></use>
                    </mask>
                    <g id="Clip-3"></g>
                    <path d="M14.102,15.8115 C14.102,19.5965 11.035,22.6625 7.25,22.6625 C3.465,22.6625 0.398,19.5965 0.398,15.8115 C0.398,12.0255 0.398,12.0255 7.25,0.6545 C14.102,12.0255 14.102,12.0255 14.102,15.8115" id="Fill-2" fill="#DA7900" mask="url(#mask-2)"></path>
                </g>
            </g>
        </g>
    </g>
</svg>