<?xml version="1.0" encoding="UTF-8"?>
<svg width="58px" height="55px" viewBox="0 0 58 55" version="1.1" xmlns="http://www.w3.org/2000/svg" xmlns:xlink="http://www.w3.org/1999/xlink">
    <!-- Generator: Sketch 41.2 (35397) - http://www.bohemiancoding.com/sketch -->
    <title>Page 1</title>
    <desc>Created with Sketch.</desc>
    <defs></defs>
    <g id="07---ALL-PAGES---SEO-Changes" stroke="none" stroke-width="1" fill="none" fill-rule="evenodd">
        <g id="services-1" transform="translate(-161.000000, -1347.000000)" fill="#DA7900">
            <g id="Page-1" transform="translate(161.000000, 1347.000000)">
                <path d="M54.966759,24.7012326 C54.966759,24.3087755 54.8092434,23.9317695 54.5320469,23.6536503 L31.3224356,0.432243565 C30.7464228,-0.144081188 29.8082785,-0.144081188 29.2291771,0.432243565 L26.3128226,3.35326755 L23.350912,0.389753134 C23.013489,0.052147347 22.4645009,0.052147347 22.1263056,0.389753134 C21.7888826,0.728131475 21.7888826,1.27741686 22.1263056,1.61502265 L25.0882162,4.57853706 L0.43393997,29.2492538 C0.156743441,29.5266004 0,29.9005162 0,30.2960635 C0,30.6885206 0.156743441,31.0655266 0.43393997,31.3436457 L23.6435513,54.5650525 C23.933102,54.85476 24.3099039,55 24.6905666,55 C25.0704571,55 25.447259,54.85476 25.7368097,54.5650525 L54.5351354,25.7511325 C54.812332,25.4706956 54.966759,25.0967799 54.966759,24.7012326 L54.966759,24.7012326 Z M36.0548521,18.3091267 C37.1103609,19.3659796 38.8237289,19.3659796 39.8823262,18.3091267 C40.9386071,17.2530463 40.9386071,15.5395231 39.8823262,14.47958 C39.0684957,13.6683991 37.870914,13.486849 36.8787203,13.9248868 L28.4029925,5.44765951 L30.2761924,3.57344524 L51.3979502,24.7012326 L51.3230531,24.7769428 L17.0109101,16.8459107 L27.1783861,6.67292903 L35.6023809,15.1014854 C35.0448993,16.1305264 35.1862,17.4400042 36.0548521,18.3091267 Z M55.685637,28.9804653 C54.4610306,33.7332132 51.6465979,39.5397237 55.8153557,39.5397237 C60.0080497,39.5397237 57.1333904,33.781884 55.685637,28.9804653 Z" id="Combined-Shape"></path>
            </g>
        </g>
    </g>
</svg>