<?xml version="1.0" encoding="UTF-8"?>
<svg width="70px" height="69px" viewBox="0 0 70 69" version="1.1" xmlns="http://www.w3.org/2000/svg" xmlns:xlink="http://www.w3.org/1999/xlink">
    <!-- Generator: Sketch 41.2 (35397) - http://www.bohemiancoding.com/sketch -->
    <title>Combined Shape</title>
    <desc>Created with Sketch.</desc>
    <defs></defs>
    <g id="07---ALL-PAGES---SEO-Changes" stroke="none" stroke-width="1" fill="none" fill-rule="evenodd">
        <g id="services-1" transform="translate(-755.000000, -1744.000000)" fill="#DA7900">
            <path d="M778.804231,1786.65726 L778.804231,1809.22181 L769.963321,1806.99257 L769.963321,1784.42803 L778.804231,1786.65726 Z M824.922864,1768.23053 L807.50107,1744.55954 L774.340249,1748.47705 L755,1768.47516 L755,1803.26909 L758.555979,1804.1771 L758.555979,1771.28181 L774.421793,1754.91682 L790.28871,1779.13318 L790.28871,1812.02846 L793.843587,1812.93646 L825,1803.01895 L824.922864,1768.23053 Z M814.260437,1788.39723 L809.959543,1789.80001 L809.959543,1784.9228 L814.256029,1783.52002 L814.260437,1788.39723 Z M808.806908,1785.25449 L808.806908,1790.1317 L804.510421,1791.53447 L804.510421,1786.65726 L808.806908,1785.25449 Z M804.424469,1792.77416 L808.719854,1791.37139 L808.719854,1796.2486 L804.424469,1797.65138 L804.424469,1792.77416 Z M809.959543,1795.83537 L809.959543,1790.95816 L814.256029,1789.55428 L814.256029,1794.43149 L809.959543,1795.83537 Z" id="Combined-Shape"></path>
        </g>
    </g>
</svg>